G04 #@! TF.FileFunction,Legend,Top*
%FSLAX46Y46*%
G04 Gerber Fmt 4.6, Leading zero omitted, Abs format (unit mm)*
G04 Created by KiCad (PCBNEW (2015-09-02 BZR 6149, Git 4a56ee4)-product) date 11/10/2015 2:24:38 PM*
%MOMM*%
G01*
G04 APERTURE LIST*
%ADD10C,0.100000*%
%ADD11C,0.190500*%
%ADD12C,0.200000*%
%ADD13C,0.254000*%
%ADD14C,0.150000*%
%ADD15C,0.203200*%
G04 APERTURE END LIST*
D10*
D11*
X73127000Y-56894856D02*
X73127000Y-56531999D01*
X73344714Y-56967428D02*
X72582714Y-56713428D01*
X73344714Y-56459428D01*
X72582714Y-56314285D02*
X72582714Y-55878856D01*
X73344714Y-56096570D02*
X72582714Y-56096570D01*
X72582714Y-55733714D02*
X72582714Y-55298285D01*
X73344714Y-55515999D02*
X72582714Y-55515999D01*
X73344714Y-55044285D02*
X72582714Y-55044285D01*
X73344714Y-54681428D02*
X72582714Y-54681428D01*
X73344714Y-54246000D01*
X72582714Y-54246000D01*
X72981857Y-53738000D02*
X73344714Y-53738000D01*
X72582714Y-53992000D02*
X72981857Y-53738000D01*
X72582714Y-53484000D01*
X72836714Y-52903428D02*
X73344714Y-52903428D01*
X72546429Y-53084857D02*
X73090714Y-53266285D01*
X73090714Y-52794571D01*
X72909286Y-52395428D02*
X72873000Y-52468000D01*
X72836714Y-52504285D01*
X72764143Y-52540571D01*
X72727857Y-52540571D01*
X72655286Y-52504285D01*
X72619000Y-52468000D01*
X72582714Y-52395428D01*
X72582714Y-52250285D01*
X72619000Y-52177714D01*
X72655286Y-52141428D01*
X72727857Y-52105143D01*
X72764143Y-52105143D01*
X72836714Y-52141428D01*
X72873000Y-52177714D01*
X72909286Y-52250285D01*
X72909286Y-52395428D01*
X72945571Y-52468000D01*
X72981857Y-52504285D01*
X73054429Y-52540571D01*
X73199571Y-52540571D01*
X73272143Y-52504285D01*
X73308429Y-52468000D01*
X73344714Y-52395428D01*
X73344714Y-52250285D01*
X73308429Y-52177714D01*
X73272143Y-52141428D01*
X73199571Y-52105143D01*
X73054429Y-52105143D01*
X72981857Y-52141428D01*
X72945571Y-52177714D01*
X72909286Y-52250285D01*
X77177429Y-64917286D02*
X77104857Y-64881000D01*
X77032286Y-64808429D01*
X76923429Y-64699571D01*
X76850857Y-64663286D01*
X76778286Y-64663286D01*
X76814571Y-64844714D02*
X76742000Y-64808429D01*
X76669429Y-64735857D01*
X76633143Y-64590714D01*
X76633143Y-64336714D01*
X76669429Y-64191571D01*
X76742000Y-64119000D01*
X76814571Y-64082714D01*
X76959714Y-64082714D01*
X77032286Y-64119000D01*
X77104857Y-64191571D01*
X77141143Y-64336714D01*
X77141143Y-64590714D01*
X77104857Y-64735857D01*
X77032286Y-64808429D01*
X76959714Y-64844714D01*
X76814571Y-64844714D01*
X77866857Y-64844714D02*
X77431429Y-64844714D01*
X77649143Y-64844714D02*
X77649143Y-64082714D01*
X77576572Y-64191571D01*
X77504000Y-64264143D01*
X77431429Y-64300429D01*
X83973857Y-63844714D02*
X83538429Y-63844714D01*
X83756143Y-63844714D02*
X83756143Y-63082714D01*
X83683572Y-63191571D01*
X83611000Y-63264143D01*
X83538429Y-63300429D01*
X84445571Y-63082714D02*
X84518143Y-63082714D01*
X84590714Y-63119000D01*
X84627000Y-63155286D01*
X84663286Y-63227857D01*
X84699571Y-63373000D01*
X84699571Y-63554429D01*
X84663286Y-63699571D01*
X84627000Y-63772143D01*
X84590714Y-63808429D01*
X84518143Y-63844714D01*
X84445571Y-63844714D01*
X84373000Y-63808429D01*
X84336714Y-63772143D01*
X84300429Y-63699571D01*
X84264143Y-63554429D01*
X84264143Y-63373000D01*
X84300429Y-63227857D01*
X84336714Y-63155286D01*
X84373000Y-63119000D01*
X84445571Y-63082714D01*
X85026143Y-63844714D02*
X85026143Y-63082714D01*
X85461571Y-63844714D02*
X85135000Y-63409286D01*
X85461571Y-63082714D02*
X85026143Y-63518143D01*
X73473857Y-67844714D02*
X73038429Y-67844714D01*
X73256143Y-67844714D02*
X73256143Y-67082714D01*
X73183572Y-67191571D01*
X73111000Y-67264143D01*
X73038429Y-67300429D01*
X73945571Y-67082714D02*
X74018143Y-67082714D01*
X74090714Y-67119000D01*
X74127000Y-67155286D01*
X74163286Y-67227857D01*
X74199571Y-67373000D01*
X74199571Y-67554429D01*
X74163286Y-67699571D01*
X74127000Y-67772143D01*
X74090714Y-67808429D01*
X74018143Y-67844714D01*
X73945571Y-67844714D01*
X73873000Y-67808429D01*
X73836714Y-67772143D01*
X73800429Y-67699571D01*
X73764143Y-67554429D01*
X73764143Y-67373000D01*
X73800429Y-67227857D01*
X73836714Y-67155286D01*
X73873000Y-67119000D01*
X73945571Y-67082714D01*
X74526143Y-67844714D02*
X74526143Y-67082714D01*
X74961571Y-67844714D02*
X74635000Y-67409286D01*
X74961571Y-67082714D02*
X74526143Y-67518143D01*
X84086714Y-60780142D02*
X84594714Y-60780142D01*
X83796429Y-60961571D02*
X84340714Y-61142999D01*
X84340714Y-60671285D01*
X84522143Y-60380999D02*
X84558429Y-60344714D01*
X84594714Y-60380999D01*
X84558429Y-60417285D01*
X84522143Y-60380999D01*
X84594714Y-60380999D01*
X83832714Y-60090714D02*
X83832714Y-59582714D01*
X84594714Y-59909285D01*
X84594714Y-59292428D02*
X83832714Y-59292428D01*
X84594714Y-58857000D02*
X84159286Y-59183571D01*
X83832714Y-58857000D02*
X84268143Y-59292428D01*
X79336714Y-60780142D02*
X79844714Y-60780142D01*
X79046429Y-60961571D02*
X79590714Y-61142999D01*
X79590714Y-60671285D01*
X79772143Y-60380999D02*
X79808429Y-60344714D01*
X79844714Y-60380999D01*
X79808429Y-60417285D01*
X79772143Y-60380999D01*
X79844714Y-60380999D01*
X79082714Y-60090714D02*
X79082714Y-59582714D01*
X79844714Y-59909285D01*
X79844714Y-59292428D02*
X79082714Y-59292428D01*
X79844714Y-58857000D02*
X79409286Y-59183571D01*
X79082714Y-58857000D02*
X79518143Y-59292428D01*
X74248143Y-54082714D02*
X74320715Y-54082714D01*
X74393286Y-54119000D01*
X74429572Y-54155286D01*
X74465858Y-54227857D01*
X74502143Y-54373000D01*
X74502143Y-54554429D01*
X74465858Y-54699571D01*
X74429572Y-54772143D01*
X74393286Y-54808429D01*
X74320715Y-54844714D01*
X74248143Y-54844714D01*
X74175572Y-54808429D01*
X74139286Y-54772143D01*
X74103001Y-54699571D01*
X74066715Y-54554429D01*
X74066715Y-54373000D01*
X74103001Y-54227857D01*
X74139286Y-54155286D01*
X74175572Y-54119000D01*
X74248143Y-54082714D01*
X74828715Y-54772143D02*
X74865000Y-54808429D01*
X74828715Y-54844714D01*
X74792429Y-54808429D01*
X74828715Y-54772143D01*
X74828715Y-54844714D01*
X75590714Y-54844714D02*
X75155286Y-54844714D01*
X75373000Y-54844714D02*
X75373000Y-54082714D01*
X75300429Y-54191571D01*
X75227857Y-54264143D01*
X75155286Y-54300429D01*
X76243857Y-54336714D02*
X76243857Y-54844714D01*
X75917286Y-54336714D02*
X75917286Y-54735857D01*
X75953571Y-54808429D01*
X76026143Y-54844714D01*
X76135000Y-54844714D01*
X76207571Y-54808429D01*
X76243857Y-54772143D01*
X76860715Y-54445571D02*
X76606715Y-54445571D01*
X76606715Y-54844714D02*
X76606715Y-54082714D01*
X76969572Y-54082714D01*
X86246286Y-53954064D02*
X86718000Y-53954064D01*
X86464000Y-54244350D01*
X86572858Y-54244350D01*
X86645429Y-54280636D01*
X86681715Y-54316921D01*
X86718000Y-54389493D01*
X86718000Y-54570921D01*
X86681715Y-54643493D01*
X86645429Y-54679779D01*
X86572858Y-54716064D01*
X86355143Y-54716064D01*
X86282572Y-54679779D01*
X86246286Y-54643493D01*
X87044572Y-54643493D02*
X87080857Y-54679779D01*
X87044572Y-54716064D01*
X87008286Y-54679779D01*
X87044572Y-54643493D01*
X87044572Y-54716064D01*
X87334857Y-53954064D02*
X87806571Y-53954064D01*
X87552571Y-54244350D01*
X87661429Y-54244350D01*
X87734000Y-54280636D01*
X87770286Y-54316921D01*
X87806571Y-54389493D01*
X87806571Y-54570921D01*
X87770286Y-54643493D01*
X87734000Y-54679779D01*
X87661429Y-54716064D01*
X87443714Y-54716064D01*
X87371143Y-54679779D01*
X87334857Y-54643493D01*
X88024285Y-53954064D02*
X88278285Y-54716064D01*
X88532285Y-53954064D01*
X89729714Y-54716064D02*
X89366857Y-54716064D01*
X89366857Y-53954064D01*
X89983714Y-54716064D02*
X89983714Y-53954064D01*
X90165142Y-53954064D01*
X90273999Y-53990350D01*
X90346571Y-54062921D01*
X90382856Y-54135493D01*
X90419142Y-54280636D01*
X90419142Y-54389493D01*
X90382856Y-54534636D01*
X90346571Y-54607207D01*
X90273999Y-54679779D01*
X90165142Y-54716064D01*
X89983714Y-54716064D01*
X90890856Y-53954064D02*
X91035999Y-53954064D01*
X91108571Y-53990350D01*
X91181142Y-54062921D01*
X91217428Y-54208064D01*
X91217428Y-54462064D01*
X91181142Y-54607207D01*
X91108571Y-54679779D01*
X91035999Y-54716064D01*
X90890856Y-54716064D01*
X90818285Y-54679779D01*
X90745714Y-54607207D01*
X90709428Y-54462064D01*
X90709428Y-54208064D01*
X90745714Y-54062921D01*
X90818285Y-53990350D01*
X90890856Y-53954064D01*
X86101144Y-55683079D02*
X86681715Y-55683079D01*
X88133143Y-55211364D02*
X88604857Y-55211364D01*
X88350857Y-55501650D01*
X88459715Y-55501650D01*
X88532286Y-55537936D01*
X88568572Y-55574221D01*
X88604857Y-55646793D01*
X88604857Y-55828221D01*
X88568572Y-55900793D01*
X88532286Y-55937079D01*
X88459715Y-55973364D01*
X88242000Y-55973364D01*
X88169429Y-55937079D01*
X88133143Y-55900793D01*
X88858857Y-55211364D02*
X89330571Y-55211364D01*
X89076571Y-55501650D01*
X89185429Y-55501650D01*
X89258000Y-55537936D01*
X89294286Y-55574221D01*
X89330571Y-55646793D01*
X89330571Y-55828221D01*
X89294286Y-55900793D01*
X89258000Y-55937079D01*
X89185429Y-55973364D01*
X88967714Y-55973364D01*
X88895143Y-55937079D01*
X88858857Y-55900793D01*
X90818285Y-55683079D02*
X91398856Y-55683079D01*
X91108570Y-55973364D02*
X91108570Y-55392793D01*
X50996286Y-60704064D02*
X51468000Y-60704064D01*
X51214000Y-60994350D01*
X51322858Y-60994350D01*
X51395429Y-61030636D01*
X51431715Y-61066921D01*
X51468000Y-61139493D01*
X51468000Y-61320921D01*
X51431715Y-61393493D01*
X51395429Y-61429779D01*
X51322858Y-61466064D01*
X51105143Y-61466064D01*
X51032572Y-61429779D01*
X50996286Y-61393493D01*
X51794572Y-61393493D02*
X51830857Y-61429779D01*
X51794572Y-61466064D01*
X51758286Y-61429779D01*
X51794572Y-61393493D01*
X51794572Y-61466064D01*
X52084857Y-60704064D02*
X52556571Y-60704064D01*
X52302571Y-60994350D01*
X52411429Y-60994350D01*
X52484000Y-61030636D01*
X52520286Y-61066921D01*
X52556571Y-61139493D01*
X52556571Y-61320921D01*
X52520286Y-61393493D01*
X52484000Y-61429779D01*
X52411429Y-61466064D01*
X52193714Y-61466064D01*
X52121143Y-61429779D01*
X52084857Y-61393493D01*
X52774285Y-60704064D02*
X53028285Y-61466064D01*
X53282285Y-60704064D01*
X54479714Y-61466064D02*
X54116857Y-61466064D01*
X54116857Y-60704064D01*
X54733714Y-61466064D02*
X54733714Y-60704064D01*
X54915142Y-60704064D01*
X55023999Y-60740350D01*
X55096571Y-60812921D01*
X55132856Y-60885493D01*
X55169142Y-61030636D01*
X55169142Y-61139493D01*
X55132856Y-61284636D01*
X55096571Y-61357207D01*
X55023999Y-61429779D01*
X54915142Y-61466064D01*
X54733714Y-61466064D01*
X55640856Y-60704064D02*
X55785999Y-60704064D01*
X55858571Y-60740350D01*
X55931142Y-60812921D01*
X55967428Y-60958064D01*
X55967428Y-61212064D01*
X55931142Y-61357207D01*
X55858571Y-61429779D01*
X55785999Y-61466064D01*
X55640856Y-61466064D01*
X55568285Y-61429779D01*
X55495714Y-61357207D01*
X55459428Y-61212064D01*
X55459428Y-60958064D01*
X55495714Y-60812921D01*
X55568285Y-60740350D01*
X55640856Y-60704064D01*
X50851144Y-62433079D02*
X51431715Y-62433079D01*
X52883143Y-61961364D02*
X53354857Y-61961364D01*
X53100857Y-62251650D01*
X53209715Y-62251650D01*
X53282286Y-62287936D01*
X53318572Y-62324221D01*
X53354857Y-62396793D01*
X53354857Y-62578221D01*
X53318572Y-62650793D01*
X53282286Y-62687079D01*
X53209715Y-62723364D01*
X52992000Y-62723364D01*
X52919429Y-62687079D01*
X52883143Y-62650793D01*
X53608857Y-61961364D02*
X54080571Y-61961364D01*
X53826571Y-62251650D01*
X53935429Y-62251650D01*
X54008000Y-62287936D01*
X54044286Y-62324221D01*
X54080571Y-62396793D01*
X54080571Y-62578221D01*
X54044286Y-62650793D01*
X54008000Y-62687079D01*
X53935429Y-62723364D01*
X53717714Y-62723364D01*
X53645143Y-62687079D01*
X53608857Y-62650793D01*
X55568285Y-62433079D02*
X56148856Y-62433079D01*
X55858570Y-62723364D02*
X55858570Y-62142793D01*
X62927429Y-54417286D02*
X62854857Y-54381000D01*
X62782286Y-54308429D01*
X62673429Y-54199571D01*
X62600857Y-54163286D01*
X62528286Y-54163286D01*
X62564571Y-54344714D02*
X62492000Y-54308429D01*
X62419429Y-54235857D01*
X62383143Y-54090714D01*
X62383143Y-53836714D01*
X62419429Y-53691571D01*
X62492000Y-53619000D01*
X62564571Y-53582714D01*
X62709714Y-53582714D01*
X62782286Y-53619000D01*
X62854857Y-53691571D01*
X62891143Y-53836714D01*
X62891143Y-54090714D01*
X62854857Y-54235857D01*
X62782286Y-54308429D01*
X62709714Y-54344714D01*
X62564571Y-54344714D01*
X63181429Y-53655286D02*
X63217715Y-53619000D01*
X63290286Y-53582714D01*
X63471715Y-53582714D01*
X63544286Y-53619000D01*
X63580572Y-53655286D01*
X63616857Y-53727857D01*
X63616857Y-53800429D01*
X63580572Y-53909286D01*
X63145143Y-54344714D01*
X63616857Y-54344714D01*
X58927429Y-54417286D02*
X58854857Y-54381000D01*
X58782286Y-54308429D01*
X58673429Y-54199571D01*
X58600857Y-54163286D01*
X58528286Y-54163286D01*
X58564571Y-54344714D02*
X58492000Y-54308429D01*
X58419429Y-54235857D01*
X58383143Y-54090714D01*
X58383143Y-53836714D01*
X58419429Y-53691571D01*
X58492000Y-53619000D01*
X58564571Y-53582714D01*
X58709714Y-53582714D01*
X58782286Y-53619000D01*
X58854857Y-53691571D01*
X58891143Y-53836714D01*
X58891143Y-54090714D01*
X58854857Y-54235857D01*
X58782286Y-54308429D01*
X58709714Y-54344714D01*
X58564571Y-54344714D01*
X59616857Y-54344714D02*
X59181429Y-54344714D01*
X59399143Y-54344714D02*
X59399143Y-53582714D01*
X59326572Y-53691571D01*
X59254000Y-53764143D01*
X59181429Y-53800429D01*
X61748143Y-58082714D02*
X61820715Y-58082714D01*
X61893286Y-58119000D01*
X61929572Y-58155286D01*
X61965858Y-58227857D01*
X62002143Y-58373000D01*
X62002143Y-58554429D01*
X61965858Y-58699571D01*
X61929572Y-58772143D01*
X61893286Y-58808429D01*
X61820715Y-58844714D01*
X61748143Y-58844714D01*
X61675572Y-58808429D01*
X61639286Y-58772143D01*
X61603001Y-58699571D01*
X61566715Y-58554429D01*
X61566715Y-58373000D01*
X61603001Y-58227857D01*
X61639286Y-58155286D01*
X61675572Y-58119000D01*
X61748143Y-58082714D01*
X62328715Y-58772143D02*
X62365000Y-58808429D01*
X62328715Y-58844714D01*
X62292429Y-58808429D01*
X62328715Y-58772143D01*
X62328715Y-58844714D01*
X63090714Y-58844714D02*
X62655286Y-58844714D01*
X62873000Y-58844714D02*
X62873000Y-58082714D01*
X62800429Y-58191571D01*
X62727857Y-58264143D01*
X62655286Y-58300429D01*
X63743857Y-58336714D02*
X63743857Y-58844714D01*
X63417286Y-58336714D02*
X63417286Y-58735857D01*
X63453571Y-58808429D01*
X63526143Y-58844714D01*
X63635000Y-58844714D01*
X63707571Y-58808429D01*
X63743857Y-58772143D01*
X64360715Y-58445571D02*
X64106715Y-58445571D01*
X64106715Y-58844714D02*
X64106715Y-58082714D01*
X64469572Y-58082714D01*
X61857001Y-63405286D02*
X61893287Y-63369000D01*
X61965858Y-63332714D01*
X62147287Y-63332714D01*
X62219858Y-63369000D01*
X62256144Y-63405286D01*
X62292429Y-63477857D01*
X62292429Y-63550429D01*
X62256144Y-63659286D01*
X61820715Y-64094714D01*
X62292429Y-64094714D01*
X62619001Y-64022143D02*
X62655286Y-64058429D01*
X62619001Y-64094714D01*
X62582715Y-64058429D01*
X62619001Y-64022143D01*
X62619001Y-64094714D01*
X62945572Y-63405286D02*
X62981858Y-63369000D01*
X63054429Y-63332714D01*
X63235858Y-63332714D01*
X63308429Y-63369000D01*
X63344715Y-63405286D01*
X63381000Y-63477857D01*
X63381000Y-63550429D01*
X63344715Y-63659286D01*
X62909286Y-64094714D01*
X63381000Y-64094714D01*
X63707572Y-64094714D02*
X63707572Y-63332714D01*
X64143000Y-64094714D02*
X63816429Y-63659286D01*
X64143000Y-63332714D02*
X63707572Y-63768143D01*
X58857001Y-63405286D02*
X58893287Y-63369000D01*
X58965858Y-63332714D01*
X59147287Y-63332714D01*
X59219858Y-63369000D01*
X59256144Y-63405286D01*
X59292429Y-63477857D01*
X59292429Y-63550429D01*
X59256144Y-63659286D01*
X58820715Y-64094714D01*
X59292429Y-64094714D01*
X59619001Y-64022143D02*
X59655286Y-64058429D01*
X59619001Y-64094714D01*
X59582715Y-64058429D01*
X59619001Y-64022143D01*
X59619001Y-64094714D01*
X59945572Y-63405286D02*
X59981858Y-63369000D01*
X60054429Y-63332714D01*
X60235858Y-63332714D01*
X60308429Y-63369000D01*
X60344715Y-63405286D01*
X60381000Y-63477857D01*
X60381000Y-63550429D01*
X60344715Y-63659286D01*
X59909286Y-64094714D01*
X60381000Y-64094714D01*
X60707572Y-64094714D02*
X60707572Y-63332714D01*
X61143000Y-64094714D02*
X60816429Y-63659286D01*
X61143000Y-63332714D02*
X60707572Y-63768143D01*
X79440000Y-62594714D02*
X79077143Y-62594714D01*
X79077143Y-61832714D01*
X79694000Y-62195571D02*
X79948000Y-62195571D01*
X80056857Y-62594714D02*
X79694000Y-62594714D01*
X79694000Y-61832714D01*
X80056857Y-61832714D01*
X80383429Y-62594714D02*
X80383429Y-61832714D01*
X80564857Y-61832714D01*
X80673714Y-61869000D01*
X80746286Y-61941571D01*
X80782571Y-62014143D01*
X80818857Y-62159286D01*
X80818857Y-62268143D01*
X80782571Y-62413286D01*
X80746286Y-62485857D01*
X80673714Y-62558429D01*
X80564857Y-62594714D01*
X80383429Y-62594714D01*
X81689714Y-62558429D02*
X81798571Y-62594714D01*
X81980000Y-62594714D01*
X82052571Y-62558429D01*
X82088857Y-62522143D01*
X82125142Y-62449571D01*
X82125142Y-62377000D01*
X82088857Y-62304429D01*
X82052571Y-62268143D01*
X81980000Y-62231857D01*
X81834857Y-62195571D01*
X81762285Y-62159286D01*
X81726000Y-62123000D01*
X81689714Y-62050429D01*
X81689714Y-61977857D01*
X81726000Y-61905286D01*
X81762285Y-61869000D01*
X81834857Y-61832714D01*
X82016285Y-61832714D01*
X82125142Y-61869000D01*
X82778285Y-62594714D02*
X82778285Y-62195571D01*
X82741999Y-62123000D01*
X82669428Y-62086714D01*
X82524285Y-62086714D01*
X82451714Y-62123000D01*
X82778285Y-62558429D02*
X82705714Y-62594714D01*
X82524285Y-62594714D01*
X82451714Y-62558429D01*
X82415428Y-62485857D01*
X82415428Y-62413286D01*
X82451714Y-62340714D01*
X82524285Y-62304429D01*
X82705714Y-62304429D01*
X82778285Y-62268143D01*
X83032285Y-62086714D02*
X83322571Y-62086714D01*
X83141143Y-62594714D02*
X83141143Y-61941571D01*
X83177428Y-61869000D01*
X83250000Y-61832714D01*
X83322571Y-61832714D01*
X83866857Y-62558429D02*
X83794286Y-62594714D01*
X83649143Y-62594714D01*
X83576572Y-62558429D01*
X83540286Y-62485857D01*
X83540286Y-62195571D01*
X83576572Y-62123000D01*
X83649143Y-62086714D01*
X83794286Y-62086714D01*
X83866857Y-62123000D01*
X83903143Y-62195571D01*
X83903143Y-62268143D01*
X83540286Y-62340714D01*
X84193429Y-62558429D02*
X84302286Y-62594714D01*
X84483715Y-62594714D01*
X84556286Y-62558429D01*
X84592572Y-62522143D01*
X84628857Y-62449571D01*
X84628857Y-62377000D01*
X84592572Y-62304429D01*
X84556286Y-62268143D01*
X84483715Y-62231857D01*
X84338572Y-62195571D01*
X84266000Y-62159286D01*
X84229715Y-62123000D01*
X84193429Y-62050429D01*
X84193429Y-61977857D01*
X84229715Y-61905286D01*
X84266000Y-61869000D01*
X84338572Y-61832714D01*
X84520000Y-61832714D01*
X84628857Y-61869000D01*
X84846571Y-62086714D02*
X85136857Y-62086714D01*
X84955429Y-61832714D02*
X84955429Y-62485857D01*
X84991714Y-62558429D01*
X85064286Y-62594714D01*
X85136857Y-62594714D01*
X85717429Y-62594714D02*
X85717429Y-62195571D01*
X85681143Y-62123000D01*
X85608572Y-62086714D01*
X85463429Y-62086714D01*
X85390858Y-62123000D01*
X85717429Y-62558429D02*
X85644858Y-62594714D01*
X85463429Y-62594714D01*
X85390858Y-62558429D01*
X85354572Y-62485857D01*
X85354572Y-62413286D01*
X85390858Y-62340714D01*
X85463429Y-62304429D01*
X85644858Y-62304429D01*
X85717429Y-62268143D01*
X86080287Y-62594714D02*
X86080287Y-62086714D01*
X86080287Y-62159286D02*
X86116572Y-62123000D01*
X86189144Y-62086714D01*
X86298001Y-62086714D01*
X86370572Y-62123000D01*
X86406858Y-62195571D01*
X86406858Y-62594714D01*
X86406858Y-62195571D02*
X86443144Y-62123000D01*
X86515715Y-62086714D01*
X86624572Y-62086714D01*
X86697144Y-62123000D01*
X86733429Y-62195571D01*
X86733429Y-62594714D01*
X87096287Y-62086714D02*
X87096287Y-62848714D01*
X87096287Y-62123000D02*
X87168858Y-62086714D01*
X87314001Y-62086714D01*
X87386572Y-62123000D01*
X87422858Y-62159286D01*
X87459144Y-62231857D01*
X87459144Y-62449571D01*
X87422858Y-62522143D01*
X87386572Y-62558429D01*
X87314001Y-62594714D01*
X87168858Y-62594714D01*
X87096287Y-62558429D01*
D12*
X91350000Y-66650000D02*
X91350000Y-64950000D01*
X91350000Y-64950000D02*
G75*
G03X90350000Y-63950000I-1000000J0D01*
G01*
X90450000Y-63950000D02*
G75*
G03X89350000Y-64850000I-100000J-1000000D01*
G01*
X90750000Y-64950000D02*
G75*
G03X90350000Y-64550000I-400000J0D01*
G01*
X90350000Y-64550000D02*
G75*
G03X89950000Y-64950000I0J-400000D01*
G01*
X89350000Y-64950000D02*
X89350000Y-65350000D01*
X88850000Y-65850000D02*
G75*
G03X89350000Y-65350000I0J500000D01*
G01*
X88350000Y-65350000D02*
G75*
G03X88850000Y-65850000I500000J0D01*
G01*
X88850000Y-66450000D02*
G75*
G03X89950000Y-65350000I0J1100000D01*
G01*
X87750000Y-65350000D02*
G75*
G03X88850000Y-66450000I1100000J0D01*
G01*
X89950000Y-65350000D02*
X89950000Y-64950000D01*
X90750000Y-64950000D02*
X90750000Y-66250000D01*
X90750000Y-66250000D02*
X89650000Y-67350000D01*
X88850000Y-67150000D02*
G75*
G03X87750000Y-68250000I0J-1100000D01*
G01*
X89593149Y-67438995D02*
G75*
G03X88850000Y-67150000I-743149J-811005D01*
G01*
X88850000Y-67750000D02*
G75*
G03X88350000Y-68250000I0J-500000D01*
G01*
X89350000Y-68250000D02*
G75*
G03X88850000Y-67750000I-500000J0D01*
G01*
X91350000Y-66650000D02*
X89850000Y-68150000D01*
X89850000Y-68150000D02*
X89850000Y-68250000D01*
X89850000Y-68250000D02*
X91350000Y-68250000D01*
X91350000Y-68250000D02*
X91350000Y-68850000D01*
X91350000Y-68850000D02*
X88350000Y-68850000D01*
X88350000Y-68850000D02*
X88350000Y-69350000D01*
X87750000Y-68250000D02*
X87750000Y-68850000D01*
X87750000Y-68850000D02*
G75*
G03X88350000Y-69450000I600000J0D01*
G01*
X88350000Y-68250000D02*
X89350000Y-68250000D01*
X88250000Y-69350000D02*
X88250000Y-67450000D01*
X88250000Y-67450000D02*
X88150000Y-67550000D01*
X88150000Y-67550000D02*
X88150000Y-69350000D01*
X88150000Y-69350000D02*
X88050000Y-69250000D01*
X88050000Y-69250000D02*
X88050000Y-67650000D01*
X88050000Y-67650000D02*
X87950000Y-67750000D01*
X87950000Y-67750000D02*
X87950000Y-69150000D01*
X87950000Y-69150000D02*
X87850000Y-69050000D01*
X87850000Y-69050000D02*
X87850000Y-68050000D01*
X88250000Y-68750000D02*
X91250000Y-68750000D01*
X91250000Y-68750000D02*
X91250000Y-68650000D01*
X91250000Y-68650000D02*
X88350000Y-68650000D01*
X88350000Y-68650000D02*
X88350000Y-68550000D01*
X88350000Y-68550000D02*
X91250000Y-68550000D01*
X91250000Y-68550000D02*
X91250000Y-68450000D01*
X91250000Y-68450000D02*
X88350000Y-68450000D01*
X88350000Y-68450000D02*
X88350000Y-68350000D01*
X88350000Y-68350000D02*
X91350000Y-68350000D01*
X88350000Y-67950000D02*
X88350000Y-67450000D01*
X88350000Y-67450000D02*
X88450000Y-67350000D01*
X88450000Y-67350000D02*
X88450000Y-67750000D01*
X88550000Y-67350000D02*
X88550000Y-67750000D01*
X88550000Y-67750000D02*
X88650000Y-67650000D01*
X88650000Y-67650000D02*
X88650000Y-67250000D01*
X88650000Y-67250000D02*
X88750000Y-67250000D01*
X88750000Y-67250000D02*
X88750000Y-67650000D01*
X88750000Y-67650000D02*
X88850000Y-67650000D01*
X88850000Y-67650000D02*
X88850000Y-67250000D01*
X88850000Y-67250000D02*
X88950000Y-67250000D01*
X88950000Y-67250000D02*
X88950000Y-67650000D01*
X88950000Y-67650000D02*
X89050000Y-67650000D01*
X89050000Y-67650000D02*
X89050000Y-67250000D01*
X89050000Y-67250000D02*
X89150000Y-67250000D01*
X89150000Y-67250000D02*
X89150000Y-67750000D01*
X89150000Y-67750000D02*
X89250000Y-67850000D01*
X89250000Y-67850000D02*
X89250000Y-67350000D01*
X89250000Y-67350000D02*
X89350000Y-67450000D01*
X89350000Y-67450000D02*
X89350000Y-67950000D01*
X89350000Y-67950000D02*
X89350000Y-68250000D01*
X89350000Y-68250000D02*
X89450000Y-68250000D01*
X89450000Y-68250000D02*
X89450000Y-67450000D01*
X89450000Y-67450000D02*
X89550000Y-67450000D01*
X89550000Y-67450000D02*
X89550000Y-68250000D01*
X89550000Y-68250000D02*
X89650000Y-68250000D01*
X89650000Y-68250000D02*
X89650000Y-67450000D01*
X89650000Y-67450000D02*
X89750000Y-67350000D01*
X89750000Y-67350000D02*
X89750000Y-68050000D01*
X89750000Y-68050000D02*
X89850000Y-67950000D01*
X89850000Y-67950000D02*
X89850000Y-67250000D01*
X89850000Y-67250000D02*
X89950000Y-67150000D01*
X89950000Y-67150000D02*
X89950000Y-67950000D01*
X89950000Y-67950000D02*
X90050000Y-67850000D01*
X90050000Y-67850000D02*
X90050000Y-67050000D01*
X90050000Y-67050000D02*
X90150000Y-66950000D01*
X90150000Y-66950000D02*
X90150000Y-67750000D01*
X90150000Y-67750000D02*
X90250000Y-67650000D01*
X90250000Y-67650000D02*
X90250000Y-66850000D01*
X90250000Y-66850000D02*
X90350000Y-66750000D01*
X90350000Y-66750000D02*
X90350000Y-67550000D01*
X90350000Y-67550000D02*
X90450000Y-67450000D01*
X90450000Y-67450000D02*
X90450000Y-66650000D01*
X90450000Y-66650000D02*
X90550000Y-66550000D01*
X90550000Y-66550000D02*
X90550000Y-67350000D01*
X90550000Y-67350000D02*
X90650000Y-67250000D01*
X90650000Y-67250000D02*
X90650000Y-66450000D01*
X90650000Y-66450000D02*
X90750000Y-66350000D01*
X90750000Y-66350000D02*
X90750000Y-67050000D01*
X90750000Y-67050000D02*
X90850000Y-67050000D01*
X90850000Y-66950000D02*
X90850000Y-64250000D01*
X90850000Y-64250000D02*
X90950000Y-64250000D01*
X90950000Y-64250000D02*
X90950000Y-66850000D01*
X90950000Y-66850000D02*
X91050000Y-66750000D01*
X91050000Y-66750000D02*
X91050000Y-64350000D01*
X91050000Y-64350000D02*
X91250000Y-64550000D01*
X91150000Y-66750000D02*
X91150000Y-64550000D01*
X91150000Y-64550000D02*
X91250000Y-64650000D01*
X91250000Y-64650000D02*
X91250000Y-66650000D01*
X91250000Y-66650000D02*
X91150000Y-66650000D01*
X88350000Y-65350000D02*
X88350000Y-63250000D01*
X88350000Y-63250000D02*
X91350000Y-63250000D01*
X91350000Y-63250000D02*
X91350000Y-62450000D01*
X91350000Y-62450000D02*
X88350000Y-62450000D01*
X90750000Y-64650000D02*
X90750000Y-64150000D01*
X90750000Y-64150000D02*
X90650000Y-64050000D01*
X90650000Y-64050000D02*
X90650000Y-64550000D01*
X90650000Y-64550000D02*
X90550000Y-64450000D01*
X90550000Y-64450000D02*
X90550000Y-64050000D01*
X90550000Y-64050000D02*
X90450000Y-64050000D01*
X90450000Y-64050000D02*
X90450000Y-64450000D01*
X90450000Y-64450000D02*
X90350000Y-64450000D01*
X90350000Y-64450000D02*
X90350000Y-64050000D01*
X90350000Y-64050000D02*
X90250000Y-64050000D01*
X90250000Y-64050000D02*
X90250000Y-64550000D01*
X90250000Y-64550000D02*
X90150000Y-64550000D01*
X90150000Y-64550000D02*
X90150000Y-64050000D01*
X90150000Y-64050000D02*
X90050000Y-64050000D01*
X90050000Y-64050000D02*
X90050000Y-64550000D01*
X90050000Y-64550000D02*
X89950000Y-64650000D01*
X89950000Y-64650000D02*
X89950000Y-64150000D01*
X89950000Y-64150000D02*
X89850000Y-64250000D01*
X89850000Y-64250000D02*
X89850000Y-65650000D01*
X89850000Y-65650000D02*
X89750000Y-65750000D01*
X89750000Y-65750000D02*
X89750000Y-64250000D01*
X89750000Y-64250000D02*
X89650000Y-64350000D01*
X89650000Y-64350000D02*
X89650000Y-65950000D01*
X89650000Y-65950000D02*
X89550000Y-66050000D01*
X89550000Y-66050000D02*
X89550000Y-64650000D01*
X89550000Y-64650000D02*
X89450000Y-64750000D01*
X89450000Y-64750000D02*
X89450000Y-66150000D01*
X89450000Y-66150000D02*
X89350000Y-66250000D01*
X89350000Y-66250000D02*
X89350000Y-65650000D01*
X89350000Y-65650000D02*
X89250000Y-65750000D01*
X89250000Y-65750000D02*
X89250000Y-66250000D01*
X89250000Y-66250000D02*
X89150000Y-66350000D01*
X89150000Y-66350000D02*
X89150000Y-65850000D01*
X89150000Y-65850000D02*
X89050000Y-65950000D01*
X89050000Y-65950000D02*
X89050000Y-66350000D01*
X89050000Y-66350000D02*
X88950000Y-66350000D01*
X88950000Y-66350000D02*
X88950000Y-65950000D01*
X88950000Y-65950000D02*
X88850000Y-65950000D01*
X88850000Y-65950000D02*
X88850000Y-66350000D01*
X88850000Y-66350000D02*
X88750000Y-66350000D01*
X88750000Y-66350000D02*
X88750000Y-65950000D01*
X88750000Y-65950000D02*
X88650000Y-65950000D01*
X88650000Y-65950000D02*
X88650000Y-66350000D01*
X88650000Y-66350000D02*
X88550000Y-66350000D01*
X88550000Y-66350000D02*
X88550000Y-65850000D01*
X88550000Y-65850000D02*
X88450000Y-65750000D01*
X88450000Y-65750000D02*
X88450000Y-66250000D01*
X88450000Y-66250000D02*
X88350000Y-66250000D01*
X88350000Y-66250000D02*
X88350000Y-65650000D01*
X88250000Y-66150000D02*
X88150000Y-66050000D01*
X88050000Y-65950000D02*
X87950000Y-65850000D01*
X88450000Y-63150000D02*
X91250000Y-63150000D01*
X91250000Y-63150000D02*
X91250000Y-63050000D01*
X91250000Y-63050000D02*
X88450000Y-63050000D01*
X88450000Y-63050000D02*
X88450000Y-62950000D01*
X88450000Y-62950000D02*
X91250000Y-62950000D01*
X91250000Y-62950000D02*
X91250000Y-62850000D01*
X91250000Y-62850000D02*
X88450000Y-62850000D01*
X88450000Y-62850000D02*
X88450000Y-62750000D01*
X88450000Y-62750000D02*
X91250000Y-62750000D01*
X91250000Y-62750000D02*
X91250000Y-62650000D01*
X91250000Y-62650000D02*
X88450000Y-62650000D01*
X88450000Y-62650000D02*
X88450000Y-62550000D01*
X88450000Y-62550000D02*
X91250000Y-62550000D01*
X88350000Y-63250000D02*
X88350000Y-61750000D01*
X87750000Y-65350000D02*
X87750000Y-61750000D01*
X87750000Y-61750000D02*
X87850000Y-61750000D01*
X88350000Y-61750000D02*
G75*
G03X87750000Y-61150000I-600000J0D01*
G01*
X87750000Y-61150000D02*
X87750000Y-61750000D01*
X88250000Y-66150000D02*
X88250000Y-61750000D01*
X88250000Y-61750000D02*
X88250000Y-61650000D01*
X88250000Y-61650000D02*
X88150000Y-61550000D01*
X88150000Y-61550000D02*
X88150000Y-65950000D01*
X88150000Y-65950000D02*
X88050000Y-65850000D01*
X88050000Y-65850000D02*
X88050000Y-61350000D01*
X88050000Y-61350000D02*
X87950000Y-61250000D01*
X87950000Y-61250000D02*
X87950000Y-65750000D01*
X87950000Y-65750000D02*
X87850000Y-65650000D01*
X87850000Y-65650000D02*
X87850000Y-61250000D01*
X87850000Y-61250000D02*
X87850000Y-61450000D01*
D13*
X66924657Y-60036570D02*
X66973038Y-60084951D01*
X67021419Y-60230094D01*
X67021419Y-60326856D01*
X66973038Y-60471998D01*
X66876276Y-60568760D01*
X66779514Y-60617141D01*
X66585990Y-60665522D01*
X66440848Y-60665522D01*
X66247324Y-60617141D01*
X66150562Y-60568760D01*
X66053800Y-60471998D01*
X66005419Y-60326856D01*
X66005419Y-60230094D01*
X66053800Y-60084951D01*
X66102181Y-60036570D01*
X67021419Y-59455998D02*
X66973038Y-59552760D01*
X66924657Y-59601141D01*
X66827895Y-59649522D01*
X66537610Y-59649522D01*
X66440848Y-59601141D01*
X66392467Y-59552760D01*
X66344086Y-59455998D01*
X66344086Y-59310856D01*
X66392467Y-59214094D01*
X66440848Y-59165713D01*
X66537610Y-59117332D01*
X66827895Y-59117332D01*
X66924657Y-59165713D01*
X66973038Y-59214094D01*
X67021419Y-59310856D01*
X67021419Y-59455998D01*
X67021419Y-58536760D02*
X66973038Y-58633522D01*
X66876276Y-58681903D01*
X66005419Y-58681903D01*
X67021419Y-58004570D02*
X66973038Y-58101332D01*
X66924657Y-58149713D01*
X66827895Y-58198094D01*
X66537610Y-58198094D01*
X66440848Y-58149713D01*
X66392467Y-58101332D01*
X66344086Y-58004570D01*
X66344086Y-57859428D01*
X66392467Y-57762666D01*
X66440848Y-57714285D01*
X66537610Y-57665904D01*
X66827895Y-57665904D01*
X66924657Y-57714285D01*
X66973038Y-57762666D01*
X67021419Y-57859428D01*
X67021419Y-58004570D01*
X67021419Y-57230475D02*
X66344086Y-57230475D01*
X66537610Y-57230475D02*
X66440848Y-57182094D01*
X66392467Y-57133713D01*
X66344086Y-57036951D01*
X66344086Y-56940190D01*
X66973038Y-55875809D02*
X67021419Y-55730666D01*
X67021419Y-55488762D01*
X66973038Y-55392000D01*
X66924657Y-55343619D01*
X66827895Y-55295238D01*
X66731133Y-55295238D01*
X66634371Y-55343619D01*
X66585990Y-55392000D01*
X66537610Y-55488762D01*
X66489229Y-55682285D01*
X66440848Y-55779047D01*
X66392467Y-55827428D01*
X66295705Y-55875809D01*
X66198943Y-55875809D01*
X66102181Y-55827428D01*
X66053800Y-55779047D01*
X66005419Y-55682285D01*
X66005419Y-55440381D01*
X66053800Y-55295238D01*
X66973038Y-54472762D02*
X67021419Y-54569524D01*
X67021419Y-54763047D01*
X66973038Y-54859809D01*
X66876276Y-54908190D01*
X66489229Y-54908190D01*
X66392467Y-54859809D01*
X66344086Y-54763047D01*
X66344086Y-54569524D01*
X66392467Y-54472762D01*
X66489229Y-54424381D01*
X66585990Y-54424381D01*
X66682752Y-54908190D01*
X66344086Y-53988952D02*
X67021419Y-53988952D01*
X66440848Y-53988952D02*
X66392467Y-53940571D01*
X66344086Y-53843809D01*
X66344086Y-53698667D01*
X66392467Y-53601905D01*
X66489229Y-53553524D01*
X67021419Y-53553524D01*
X66973038Y-53118095D02*
X67021419Y-53021333D01*
X67021419Y-52827809D01*
X66973038Y-52731048D01*
X66876276Y-52682667D01*
X66827895Y-52682667D01*
X66731133Y-52731048D01*
X66682752Y-52827809D01*
X66682752Y-52972952D01*
X66634371Y-53069714D01*
X66537610Y-53118095D01*
X66489229Y-53118095D01*
X66392467Y-53069714D01*
X66344086Y-52972952D01*
X66344086Y-52827809D01*
X66392467Y-52731048D01*
X67021419Y-52102095D02*
X66973038Y-52198857D01*
X66924657Y-52247238D01*
X66827895Y-52295619D01*
X66537610Y-52295619D01*
X66440848Y-52247238D01*
X66392467Y-52198857D01*
X66344086Y-52102095D01*
X66344086Y-51956953D01*
X66392467Y-51860191D01*
X66440848Y-51811810D01*
X66537610Y-51763429D01*
X66827895Y-51763429D01*
X66924657Y-51811810D01*
X66973038Y-51860191D01*
X67021419Y-51956953D01*
X67021419Y-52102095D01*
X67021419Y-51328000D02*
X66344086Y-51328000D01*
X66537610Y-51328000D02*
X66440848Y-51279619D01*
X66392467Y-51231238D01*
X66344086Y-51134476D01*
X66344086Y-51037715D01*
X68649438Y-59746285D02*
X68697819Y-59601142D01*
X68697819Y-59359238D01*
X68649438Y-59262476D01*
X68601057Y-59214095D01*
X68504295Y-59165714D01*
X68407533Y-59165714D01*
X68310771Y-59214095D01*
X68262390Y-59262476D01*
X68214010Y-59359238D01*
X68165629Y-59552761D01*
X68117248Y-59649523D01*
X68068867Y-59697904D01*
X67972105Y-59746285D01*
X67875343Y-59746285D01*
X67778581Y-59697904D01*
X67730200Y-59649523D01*
X67681819Y-59552761D01*
X67681819Y-59310857D01*
X67730200Y-59165714D01*
X68697819Y-58294857D02*
X68165629Y-58294857D01*
X68068867Y-58343238D01*
X68020486Y-58440000D01*
X68020486Y-58633523D01*
X68068867Y-58730285D01*
X68649438Y-58294857D02*
X68697819Y-58391619D01*
X68697819Y-58633523D01*
X68649438Y-58730285D01*
X68552676Y-58778666D01*
X68455914Y-58778666D01*
X68359152Y-58730285D01*
X68310771Y-58633523D01*
X68310771Y-58391619D01*
X68262390Y-58294857D01*
X68020486Y-57956190D02*
X68020486Y-57569142D01*
X68697819Y-57811047D02*
X67826962Y-57811047D01*
X67730200Y-57762666D01*
X67681819Y-57665904D01*
X67681819Y-57569142D01*
X68649438Y-56843429D02*
X68697819Y-56940191D01*
X68697819Y-57133714D01*
X68649438Y-57230476D01*
X68552676Y-57278857D01*
X68165629Y-57278857D01*
X68068867Y-57230476D01*
X68020486Y-57133714D01*
X68020486Y-56940191D01*
X68068867Y-56843429D01*
X68165629Y-56795048D01*
X68262390Y-56795048D01*
X68359152Y-57278857D01*
X68649438Y-56408000D02*
X68697819Y-56262857D01*
X68697819Y-56020953D01*
X68649438Y-55924191D01*
X68601057Y-55875810D01*
X68504295Y-55827429D01*
X68407533Y-55827429D01*
X68310771Y-55875810D01*
X68262390Y-55924191D01*
X68214010Y-56020953D01*
X68165629Y-56214476D01*
X68117248Y-56311238D01*
X68068867Y-56359619D01*
X67972105Y-56408000D01*
X67875343Y-56408000D01*
X67778581Y-56359619D01*
X67730200Y-56311238D01*
X67681819Y-56214476D01*
X67681819Y-55972572D01*
X67730200Y-55827429D01*
X68020486Y-55537143D02*
X68020486Y-55150095D01*
X67681819Y-55392000D02*
X68552676Y-55392000D01*
X68649438Y-55343619D01*
X68697819Y-55246857D01*
X68697819Y-55150095D01*
X68697819Y-54376001D02*
X68165629Y-54376001D01*
X68068867Y-54424382D01*
X68020486Y-54521144D01*
X68020486Y-54714667D01*
X68068867Y-54811429D01*
X68649438Y-54376001D02*
X68697819Y-54472763D01*
X68697819Y-54714667D01*
X68649438Y-54811429D01*
X68552676Y-54859810D01*
X68455914Y-54859810D01*
X68359152Y-54811429D01*
X68310771Y-54714667D01*
X68310771Y-54472763D01*
X68262390Y-54376001D01*
X68697819Y-53892191D02*
X68020486Y-53892191D01*
X68117248Y-53892191D02*
X68068867Y-53843810D01*
X68020486Y-53747048D01*
X68020486Y-53601906D01*
X68068867Y-53505144D01*
X68165629Y-53456763D01*
X68697819Y-53456763D01*
X68165629Y-53456763D02*
X68068867Y-53408382D01*
X68020486Y-53311620D01*
X68020486Y-53166477D01*
X68068867Y-53069715D01*
X68165629Y-53021334D01*
X68697819Y-53021334D01*
X68020486Y-52537524D02*
X69036486Y-52537524D01*
X68068867Y-52537524D02*
X68020486Y-52440762D01*
X68020486Y-52247239D01*
X68068867Y-52150477D01*
X68117248Y-52102096D01*
X68214010Y-52053715D01*
X68504295Y-52053715D01*
X68601057Y-52102096D01*
X68649438Y-52150477D01*
X68697819Y-52247239D01*
X68697819Y-52440762D01*
X68649438Y-52537524D01*
D12*
X65850000Y-61250000D02*
X65850000Y-61450000D01*
X65850000Y-65650000D02*
X65850000Y-61250000D01*
X65950000Y-65750000D02*
X65850000Y-65650000D01*
X65950000Y-61250000D02*
X65950000Y-65750000D01*
X66050000Y-61350000D02*
X65950000Y-61250000D01*
X66050000Y-65850000D02*
X66050000Y-61350000D01*
X66150000Y-65950000D02*
X66050000Y-65850000D01*
X66150000Y-61550000D02*
X66150000Y-65950000D01*
X66250000Y-61650000D02*
X66150000Y-61550000D01*
X66250000Y-61750000D02*
X66250000Y-61650000D01*
X66250000Y-66150000D02*
X66250000Y-61750000D01*
X65750000Y-61150000D02*
X65750000Y-61750000D01*
X66350000Y-61750000D02*
G75*
G03X65750000Y-61150000I-600000J0D01*
G01*
X65750000Y-61750000D02*
X65850000Y-61750000D01*
X65750000Y-65350000D02*
X65750000Y-61750000D01*
X66350000Y-63250000D02*
X66350000Y-61750000D01*
X66450000Y-62550000D02*
X69250000Y-62550000D01*
X66450000Y-62650000D02*
X66450000Y-62550000D01*
X69250000Y-62650000D02*
X66450000Y-62650000D01*
X69250000Y-62750000D02*
X69250000Y-62650000D01*
X66450000Y-62750000D02*
X69250000Y-62750000D01*
X66450000Y-62850000D02*
X66450000Y-62750000D01*
X69250000Y-62850000D02*
X66450000Y-62850000D01*
X69250000Y-62950000D02*
X69250000Y-62850000D01*
X66450000Y-62950000D02*
X69250000Y-62950000D01*
X66450000Y-63050000D02*
X66450000Y-62950000D01*
X69250000Y-63050000D02*
X66450000Y-63050000D01*
X69250000Y-63150000D02*
X69250000Y-63050000D01*
X66450000Y-63150000D02*
X69250000Y-63150000D01*
X66050000Y-65950000D02*
X65950000Y-65850000D01*
X66250000Y-66150000D02*
X66150000Y-66050000D01*
X66350000Y-66250000D02*
X66350000Y-65650000D01*
X66450000Y-66250000D02*
X66350000Y-66250000D01*
X66450000Y-65750000D02*
X66450000Y-66250000D01*
X66550000Y-65850000D02*
X66450000Y-65750000D01*
X66550000Y-66350000D02*
X66550000Y-65850000D01*
X66650000Y-66350000D02*
X66550000Y-66350000D01*
X66650000Y-65950000D02*
X66650000Y-66350000D01*
X66750000Y-65950000D02*
X66650000Y-65950000D01*
X66750000Y-66350000D02*
X66750000Y-65950000D01*
X66850000Y-66350000D02*
X66750000Y-66350000D01*
X66850000Y-65950000D02*
X66850000Y-66350000D01*
X66950000Y-65950000D02*
X66850000Y-65950000D01*
X66950000Y-66350000D02*
X66950000Y-65950000D01*
X67050000Y-66350000D02*
X66950000Y-66350000D01*
X67050000Y-65950000D02*
X67050000Y-66350000D01*
X67150000Y-65850000D02*
X67050000Y-65950000D01*
X67150000Y-66350000D02*
X67150000Y-65850000D01*
X67250000Y-66250000D02*
X67150000Y-66350000D01*
X67250000Y-65750000D02*
X67250000Y-66250000D01*
X67350000Y-65650000D02*
X67250000Y-65750000D01*
X67350000Y-66250000D02*
X67350000Y-65650000D01*
X67450000Y-66150000D02*
X67350000Y-66250000D01*
X67450000Y-64750000D02*
X67450000Y-66150000D01*
X67550000Y-64650000D02*
X67450000Y-64750000D01*
X67550000Y-66050000D02*
X67550000Y-64650000D01*
X67650000Y-65950000D02*
X67550000Y-66050000D01*
X67650000Y-64350000D02*
X67650000Y-65950000D01*
X67750000Y-64250000D02*
X67650000Y-64350000D01*
X67750000Y-65750000D02*
X67750000Y-64250000D01*
X67850000Y-65650000D02*
X67750000Y-65750000D01*
X67850000Y-64250000D02*
X67850000Y-65650000D01*
X67950000Y-64150000D02*
X67850000Y-64250000D01*
X67950000Y-64650000D02*
X67950000Y-64150000D01*
X68050000Y-64550000D02*
X67950000Y-64650000D01*
X68050000Y-64050000D02*
X68050000Y-64550000D01*
X68150000Y-64050000D02*
X68050000Y-64050000D01*
X68150000Y-64550000D02*
X68150000Y-64050000D01*
X68250000Y-64550000D02*
X68150000Y-64550000D01*
X68250000Y-64050000D02*
X68250000Y-64550000D01*
X68350000Y-64050000D02*
X68250000Y-64050000D01*
X68350000Y-64450000D02*
X68350000Y-64050000D01*
X68450000Y-64450000D02*
X68350000Y-64450000D01*
X68450000Y-64050000D02*
X68450000Y-64450000D01*
X68550000Y-64050000D02*
X68450000Y-64050000D01*
X68550000Y-64450000D02*
X68550000Y-64050000D01*
X68650000Y-64550000D02*
X68550000Y-64450000D01*
X68650000Y-64050000D02*
X68650000Y-64550000D01*
X68750000Y-64150000D02*
X68650000Y-64050000D01*
X68750000Y-64650000D02*
X68750000Y-64150000D01*
X69350000Y-62450000D02*
X66350000Y-62450000D01*
X69350000Y-63250000D02*
X69350000Y-62450000D01*
X66350000Y-63250000D02*
X69350000Y-63250000D01*
X66350000Y-65350000D02*
X66350000Y-63250000D01*
X69250000Y-66650000D02*
X69150000Y-66650000D01*
X69250000Y-64650000D02*
X69250000Y-66650000D01*
X69150000Y-64550000D02*
X69250000Y-64650000D01*
X69150000Y-66750000D02*
X69150000Y-64550000D01*
X69050000Y-64350000D02*
X69250000Y-64550000D01*
X69050000Y-66750000D02*
X69050000Y-64350000D01*
X68950000Y-66850000D02*
X69050000Y-66750000D01*
X68950000Y-64250000D02*
X68950000Y-66850000D01*
X68850000Y-64250000D02*
X68950000Y-64250000D01*
X68850000Y-66950000D02*
X68850000Y-64250000D01*
X68750000Y-67050000D02*
X68850000Y-67050000D01*
X68750000Y-66350000D02*
X68750000Y-67050000D01*
X68650000Y-66450000D02*
X68750000Y-66350000D01*
X68650000Y-67250000D02*
X68650000Y-66450000D01*
X68550000Y-67350000D02*
X68650000Y-67250000D01*
X68550000Y-66550000D02*
X68550000Y-67350000D01*
X68450000Y-66650000D02*
X68550000Y-66550000D01*
X68450000Y-67450000D02*
X68450000Y-66650000D01*
X68350000Y-67550000D02*
X68450000Y-67450000D01*
X68350000Y-66750000D02*
X68350000Y-67550000D01*
X68250000Y-66850000D02*
X68350000Y-66750000D01*
X68250000Y-67650000D02*
X68250000Y-66850000D01*
X68150000Y-67750000D02*
X68250000Y-67650000D01*
X68150000Y-66950000D02*
X68150000Y-67750000D01*
X68050000Y-67050000D02*
X68150000Y-66950000D01*
X68050000Y-67850000D02*
X68050000Y-67050000D01*
X67950000Y-67950000D02*
X68050000Y-67850000D01*
X67950000Y-67150000D02*
X67950000Y-67950000D01*
X67850000Y-67250000D02*
X67950000Y-67150000D01*
X67850000Y-67950000D02*
X67850000Y-67250000D01*
X67750000Y-68050000D02*
X67850000Y-67950000D01*
X67750000Y-67350000D02*
X67750000Y-68050000D01*
X67650000Y-67450000D02*
X67750000Y-67350000D01*
X67650000Y-68250000D02*
X67650000Y-67450000D01*
X67550000Y-68250000D02*
X67650000Y-68250000D01*
X67550000Y-67450000D02*
X67550000Y-68250000D01*
X67450000Y-67450000D02*
X67550000Y-67450000D01*
X67450000Y-68250000D02*
X67450000Y-67450000D01*
X67350000Y-68250000D02*
X67450000Y-68250000D01*
X67350000Y-67950000D02*
X67350000Y-68250000D01*
X67350000Y-67450000D02*
X67350000Y-67950000D01*
X67250000Y-67350000D02*
X67350000Y-67450000D01*
X67250000Y-67850000D02*
X67250000Y-67350000D01*
X67150000Y-67750000D02*
X67250000Y-67850000D01*
X67150000Y-67250000D02*
X67150000Y-67750000D01*
X67050000Y-67250000D02*
X67150000Y-67250000D01*
X67050000Y-67650000D02*
X67050000Y-67250000D01*
X66950000Y-67650000D02*
X67050000Y-67650000D01*
X66950000Y-67250000D02*
X66950000Y-67650000D01*
X66850000Y-67250000D02*
X66950000Y-67250000D01*
X66850000Y-67650000D02*
X66850000Y-67250000D01*
X66750000Y-67650000D02*
X66850000Y-67650000D01*
X66750000Y-67250000D02*
X66750000Y-67650000D01*
X66650000Y-67250000D02*
X66750000Y-67250000D01*
X66650000Y-67650000D02*
X66650000Y-67250000D01*
X66550000Y-67750000D02*
X66650000Y-67650000D01*
X66550000Y-67350000D02*
X66550000Y-67750000D01*
X66450000Y-67350000D02*
X66450000Y-67750000D01*
X66350000Y-67450000D02*
X66450000Y-67350000D01*
X66350000Y-67950000D02*
X66350000Y-67450000D01*
X66350000Y-68350000D02*
X69350000Y-68350000D01*
X66350000Y-68450000D02*
X66350000Y-68350000D01*
X69250000Y-68450000D02*
X66350000Y-68450000D01*
X69250000Y-68550000D02*
X69250000Y-68450000D01*
X66350000Y-68550000D02*
X69250000Y-68550000D01*
X66350000Y-68650000D02*
X66350000Y-68550000D01*
X69250000Y-68650000D02*
X66350000Y-68650000D01*
X69250000Y-68750000D02*
X69250000Y-68650000D01*
X66250000Y-68750000D02*
X69250000Y-68750000D01*
X65850000Y-69050000D02*
X65850000Y-68050000D01*
X65950000Y-69150000D02*
X65850000Y-69050000D01*
X65950000Y-67750000D02*
X65950000Y-69150000D01*
X66050000Y-67650000D02*
X65950000Y-67750000D01*
X66050000Y-69250000D02*
X66050000Y-67650000D01*
X66150000Y-69350000D02*
X66050000Y-69250000D01*
X66150000Y-67550000D02*
X66150000Y-69350000D01*
X66250000Y-67450000D02*
X66150000Y-67550000D01*
X66250000Y-69350000D02*
X66250000Y-67450000D01*
X66350000Y-68250000D02*
X67350000Y-68250000D01*
X65750000Y-68850000D02*
G75*
G03X66350000Y-69450000I600000J0D01*
G01*
X65750000Y-68250000D02*
X65750000Y-68850000D01*
X66350000Y-68850000D02*
X66350000Y-69350000D01*
X69350000Y-68850000D02*
X66350000Y-68850000D01*
X69350000Y-68250000D02*
X69350000Y-68850000D01*
X67850000Y-68250000D02*
X69350000Y-68250000D01*
X67850000Y-68150000D02*
X67850000Y-68250000D01*
X69350000Y-66650000D02*
X67850000Y-68150000D01*
X67350000Y-68250000D02*
G75*
G03X66850000Y-67750000I-500000J0D01*
G01*
X66850000Y-67750000D02*
G75*
G03X66350000Y-68250000I0J-500000D01*
G01*
X67593149Y-67438995D02*
G75*
G03X66850000Y-67150000I-743149J-811005D01*
G01*
X66850000Y-67150000D02*
G75*
G03X65750000Y-68250000I0J-1100000D01*
G01*
X68750000Y-66250000D02*
X67650000Y-67350000D01*
X68750000Y-64950000D02*
X68750000Y-66250000D01*
X67950000Y-65350000D02*
X67950000Y-64950000D01*
X65750000Y-65350000D02*
G75*
G03X66850000Y-66450000I1100000J0D01*
G01*
X66850000Y-66450000D02*
G75*
G03X67950000Y-65350000I0J1100000D01*
G01*
X66350000Y-65350000D02*
G75*
G03X66850000Y-65850000I500000J0D01*
G01*
X66850000Y-65850000D02*
G75*
G03X67350000Y-65350000I0J500000D01*
G01*
X67350000Y-64950000D02*
X67350000Y-65350000D01*
X68350000Y-64550000D02*
G75*
G03X67950000Y-64950000I0J-400000D01*
G01*
X68750000Y-64950000D02*
G75*
G03X68350000Y-64550000I-400000J0D01*
G01*
X68450000Y-63950000D02*
G75*
G03X67350000Y-64850000I-100000J-1000000D01*
G01*
X69350000Y-64950000D02*
G75*
G03X68350000Y-63950000I-1000000J0D01*
G01*
X69350000Y-66650000D02*
X69350000Y-64950000D01*
D14*
X75850000Y-56350000D02*
X75150000Y-56350000D01*
X75150000Y-55150000D02*
X75850000Y-55150000D01*
X60350000Y-59100000D02*
X59650000Y-59100000D01*
X59650000Y-57900000D02*
X60350000Y-57900000D01*
X78375000Y-62625000D02*
X77850000Y-62625000D01*
X73125000Y-57375000D02*
X73650000Y-57375000D01*
X73125000Y-62625000D02*
X73650000Y-62625000D01*
X78375000Y-57375000D02*
X78375000Y-57900000D01*
X73125000Y-57375000D02*
X73125000Y-57900000D01*
X73125000Y-62625000D02*
X73125000Y-62100000D01*
X78375000Y-62625000D02*
X78375000Y-62100000D01*
X79270000Y-53270000D02*
X86890000Y-53270000D01*
X79270000Y-50730000D02*
X86890000Y-50730000D01*
X76450000Y-50450000D02*
X78000000Y-50450000D01*
X86890000Y-53270000D02*
X86890000Y-50730000D01*
X79270000Y-50730000D02*
X79270000Y-53270000D01*
X78000000Y-53550000D02*
X76450000Y-53550000D01*
X76450000Y-53550000D02*
X76450000Y-50450000D01*
X79270000Y-69270000D02*
X86890000Y-69270000D01*
X79270000Y-66730000D02*
X86890000Y-66730000D01*
X76450000Y-66450000D02*
X78000000Y-66450000D01*
X86890000Y-69270000D02*
X86890000Y-66730000D01*
X79270000Y-66730000D02*
X79270000Y-69270000D01*
X78000000Y-69550000D02*
X76450000Y-69550000D01*
X76450000Y-69550000D02*
X76450000Y-66450000D01*
X57270000Y-53270000D02*
X64890000Y-53270000D01*
X57270000Y-50730000D02*
X64890000Y-50730000D01*
X54450000Y-50450000D02*
X56000000Y-50450000D01*
X64890000Y-53270000D02*
X64890000Y-50730000D01*
X57270000Y-50730000D02*
X57270000Y-53270000D01*
X56000000Y-53550000D02*
X54450000Y-53550000D01*
X54450000Y-53550000D02*
X54450000Y-50450000D01*
X57270000Y-69270000D02*
X64890000Y-69270000D01*
X57270000Y-66730000D02*
X64890000Y-66730000D01*
X54450000Y-66450000D02*
X56000000Y-66450000D01*
X64890000Y-69270000D02*
X64890000Y-66730000D01*
X57270000Y-66730000D02*
X57270000Y-69270000D01*
X56000000Y-69550000D02*
X54450000Y-69550000D01*
X54450000Y-69550000D02*
X54450000Y-66450000D01*
X60299160Y-55349760D02*
X60250900Y-55349760D01*
X57500180Y-56050800D02*
X57500180Y-55349760D01*
X57500180Y-55349760D02*
X57749100Y-55349760D01*
X60299160Y-55349760D02*
X60499820Y-55349760D01*
X60499820Y-55349760D02*
X60499820Y-56050800D01*
X64299160Y-55349760D02*
X64250900Y-55349760D01*
X61500180Y-56050800D02*
X61500180Y-55349760D01*
X61500180Y-55349760D02*
X61749100Y-55349760D01*
X64299160Y-55349760D02*
X64499820Y-55349760D01*
X64499820Y-55349760D02*
X64499820Y-56050800D01*
X82325000Y-60500000D02*
X82325000Y-59500000D01*
X83675000Y-59500000D02*
X83675000Y-60500000D01*
X80075000Y-60500000D02*
X80075000Y-59500000D01*
X81425000Y-59500000D02*
X81425000Y-60500000D01*
X59500000Y-61825000D02*
X60500000Y-61825000D01*
X60500000Y-63175000D02*
X59500000Y-63175000D01*
X63500000Y-63175000D02*
X62500000Y-63175000D01*
X62500000Y-61825000D02*
X63500000Y-61825000D01*
X73500000Y-68075000D02*
X74500000Y-68075000D01*
X74500000Y-69425000D02*
X73500000Y-69425000D01*
X84250000Y-65425000D02*
X83250000Y-65425000D01*
X83250000Y-64075000D02*
X84250000Y-64075000D01*
X78150240Y-65799160D02*
X78150240Y-65750900D01*
X77449200Y-63000180D02*
X78150240Y-63000180D01*
X78150240Y-63000180D02*
X78150240Y-63249100D01*
X78150240Y-65799160D02*
X78150240Y-65999820D01*
X78150240Y-65999820D02*
X77449200Y-65999820D01*
D15*
X49944000Y-62524000D02*
X49944000Y-65572000D01*
X49944000Y-65572000D02*
X57056000Y-65572000D01*
X57056000Y-65572000D02*
X57056000Y-62524000D01*
X49944000Y-59476000D02*
X49944000Y-58714000D01*
X49944000Y-58714000D02*
X51468000Y-56428000D01*
X51468000Y-56428000D02*
X55532000Y-56428000D01*
X55532000Y-56428000D02*
X57056000Y-58714000D01*
X57056000Y-58714000D02*
X57056000Y-59476000D01*
X85344000Y-56134000D02*
X85344000Y-59182000D01*
X85344000Y-59182000D02*
X92456000Y-59182000D01*
X92456000Y-59182000D02*
X92456000Y-56134000D01*
X85344000Y-53086000D02*
X85344000Y-52324000D01*
X85344000Y-52324000D02*
X86868000Y-50038000D01*
X86868000Y-50038000D02*
X90932000Y-50038000D01*
X90932000Y-50038000D02*
X92456000Y-52324000D01*
X92456000Y-52324000D02*
X92456000Y-53086000D01*
D14*
X72730000Y-64365000D02*
X72095000Y-64365000D01*
X72095000Y-64365000D02*
X72095000Y-65635000D01*
X72095000Y-65635000D02*
X72730000Y-65635000D01*
X75270000Y-63095000D02*
X75270000Y-66905000D01*
X75270000Y-66905000D02*
X72730000Y-66905000D01*
X72730000Y-66905000D02*
X72730000Y-63095000D01*
X72730000Y-63095000D02*
X75270000Y-63095000D01*
M02*
