G04 #@! TF.FileFunction,Soldermask,Top*
%FSLAX46Y46*%
G04 Gerber Fmt 4.6, Leading zero omitted, Abs format (unit mm)*
G04 Created by KiCad (PCBNEW (2015-09-02 BZR 6149, Git 4a56ee4)-product) date 11/10/2015 2:24:38 PM*
%MOMM*%
G01*
G04 APERTURE LIST*
%ADD10C,0.100000*%
%ADD11R,0.901600X0.851600*%
%ADD12R,0.351600X0.801600*%
%ADD13R,0.801600X0.351600*%
%ADD14R,1.826600X1.826600*%
%ADD15R,1.828800X2.133600*%
%ADD16O,1.828800X2.133600*%
%ADD17R,0.901700X0.901700*%
%ADD18R,1.001600X0.601600*%
%ADD19R,0.601600X1.001600*%
%ADD20R,3.759200X2.133600*%
%ADD21R,1.117600X2.133600*%
%ADD22R,0.863600X0.863600*%
%ADD23C,0.863600*%
G04 APERTURE END LIST*
D10*
D11*
X76250000Y-55750000D03*
X74750000Y-55750000D03*
X60750000Y-58500000D03*
X59250000Y-58500000D03*
D12*
X77500000Y-57600000D03*
X77000000Y-57600000D03*
X76500000Y-57600000D03*
X76000000Y-57600000D03*
X75500000Y-57600000D03*
X75000000Y-57600000D03*
X74500000Y-57600000D03*
X74000000Y-57600000D03*
D13*
X73350000Y-58250000D03*
X73350000Y-58750000D03*
X73350000Y-59250000D03*
X73350000Y-59750000D03*
X73350000Y-60250000D03*
X73350000Y-60750000D03*
X73350000Y-61250000D03*
X73350000Y-61750000D03*
D12*
X74000000Y-62400000D03*
X74500000Y-62400000D03*
X75000000Y-62400000D03*
X75500000Y-62400000D03*
X76000000Y-62400000D03*
X76500000Y-62400000D03*
X77000000Y-62400000D03*
X77500000Y-62400000D03*
D13*
X78150000Y-61750000D03*
X78150000Y-61250000D03*
X78150000Y-60750000D03*
X78150000Y-60250000D03*
X78150000Y-59750000D03*
X78150000Y-59250000D03*
X78150000Y-58750000D03*
X78150000Y-58250000D03*
D14*
X74887500Y-60862500D03*
X76612500Y-60862500D03*
X74887500Y-59137500D03*
X76612500Y-59137500D03*
D15*
X78000000Y-52000000D03*
D16*
X80540000Y-52000000D03*
X83080000Y-52000000D03*
X85620000Y-52000000D03*
D15*
X78000000Y-68000000D03*
D16*
X80540000Y-68000000D03*
X83080000Y-68000000D03*
X85620000Y-68000000D03*
D15*
X56000000Y-52000000D03*
D16*
X58540000Y-52000000D03*
X61080000Y-52000000D03*
X63620000Y-52000000D03*
D15*
X56000000Y-68000000D03*
D16*
X58540000Y-68000000D03*
X61080000Y-68000000D03*
X63620000Y-68000000D03*
D17*
X58050000Y-57000760D03*
X59950000Y-57000760D03*
X59000000Y-55001780D03*
X62050000Y-57000760D03*
X63950000Y-57000760D03*
X63000000Y-55001780D03*
D18*
X83000000Y-59250000D03*
X83000000Y-60750000D03*
X80750000Y-59250000D03*
X80750000Y-60750000D03*
D19*
X60750000Y-62500000D03*
X59250000Y-62500000D03*
X62250000Y-62500000D03*
X63750000Y-62500000D03*
X74750000Y-68750000D03*
X73250000Y-68750000D03*
X83000000Y-64750000D03*
X84500000Y-64750000D03*
D17*
X76499240Y-63550000D03*
X76499240Y-65450000D03*
X78498220Y-64500000D03*
D20*
X53500000Y-57698000D03*
D21*
X53500000Y-64302000D03*
X55786000Y-64302000D03*
X51214000Y-64302000D03*
D20*
X88900000Y-51308000D03*
D21*
X88900000Y-57912000D03*
X91186000Y-57912000D03*
X86614000Y-57912000D03*
D22*
X73365000Y-63730000D03*
D23*
X74635000Y-63730000D03*
X73365000Y-65000000D03*
X74635000Y-65000000D03*
X73365000Y-66270000D03*
X74635000Y-66270000D03*
M02*
