G04 #@! TF.FileFunction,Paste,Top*
%FSLAX46Y46*%
G04 Gerber Fmt 4.6, Leading zero omitted, Abs format (unit mm)*
G04 Created by KiCad (PCBNEW (2015-09-02 BZR 6149, Git 4a56ee4)-product) date 11/10/2015 2:24:38 PM*
%MOMM*%
G01*
G04 APERTURE LIST*
%ADD10C,0.100000*%
%ADD11R,0.800000X0.750000*%
%ADD12R,0.250000X0.700000*%
%ADD13R,0.700000X0.250000*%
%ADD14R,1.035000X1.035000*%
%ADD15R,0.800100X0.800100*%
%ADD16R,0.900000X0.500000*%
%ADD17R,0.500000X0.900000*%
%ADD18R,3.657600X2.032000*%
%ADD19R,1.016000X2.032000*%
G04 APERTURE END LIST*
D10*
D11*
X76250000Y-55750000D03*
X74750000Y-55750000D03*
X60750000Y-58500000D03*
X59250000Y-58500000D03*
D12*
X77500000Y-57600000D03*
X77000000Y-57600000D03*
X76500000Y-57600000D03*
X76000000Y-57600000D03*
X75500000Y-57600000D03*
X75000000Y-57600000D03*
X74500000Y-57600000D03*
X74000000Y-57600000D03*
D13*
X73350000Y-58250000D03*
X73350000Y-58750000D03*
X73350000Y-59250000D03*
X73350000Y-59750000D03*
X73350000Y-60250000D03*
X73350000Y-60750000D03*
X73350000Y-61250000D03*
X73350000Y-61750000D03*
D12*
X74000000Y-62400000D03*
X74500000Y-62400000D03*
X75000000Y-62400000D03*
X75500000Y-62400000D03*
X76000000Y-62400000D03*
X76500000Y-62400000D03*
X77000000Y-62400000D03*
X77500000Y-62400000D03*
D13*
X78150000Y-61750000D03*
X78150000Y-61250000D03*
X78150000Y-60750000D03*
X78150000Y-60250000D03*
X78150000Y-59750000D03*
X78150000Y-59250000D03*
X78150000Y-58750000D03*
X78150000Y-58250000D03*
D14*
X74887500Y-60862500D03*
X76612500Y-60862500D03*
X74887500Y-59137500D03*
X76612500Y-59137500D03*
D15*
X58050000Y-57000760D03*
X59950000Y-57000760D03*
X59000000Y-55001780D03*
X62050000Y-57000760D03*
X63950000Y-57000760D03*
X63000000Y-55001780D03*
D16*
X83000000Y-59250000D03*
X83000000Y-60750000D03*
X80750000Y-59250000D03*
X80750000Y-60750000D03*
D17*
X60750000Y-62500000D03*
X59250000Y-62500000D03*
X62250000Y-62500000D03*
X63750000Y-62500000D03*
X74750000Y-68750000D03*
X73250000Y-68750000D03*
X83000000Y-64750000D03*
X84500000Y-64750000D03*
D15*
X76499240Y-63550000D03*
X76499240Y-65450000D03*
X78498220Y-64500000D03*
D18*
X53500000Y-57698000D03*
D19*
X53500000Y-64302000D03*
X55786000Y-64302000D03*
X51214000Y-64302000D03*
D18*
X88900000Y-51308000D03*
D19*
X88900000Y-57912000D03*
X91186000Y-57912000D03*
X86614000Y-57912000D03*
M02*
