G04 #@! TF.FileFunction,Legend,Bot*
%FSLAX46Y46*%
G04 Gerber Fmt 4.6, Leading zero omitted, Abs format (unit mm)*
G04 Created by KiCad (PCBNEW (2015-09-02 BZR 6149, Git 4a56ee4)-product) date 11/10/2015 2:24:38 PM*
%MOMM*%
G01*
G04 APERTURE LIST*
%ADD10C,0.100000*%
%ADD11C,0.190500*%
G04 APERTURE END LIST*
D10*
D11*
X89188571Y-54832714D02*
X88680571Y-55594714D01*
X88680571Y-54832714D02*
X89188571Y-55594714D01*
X87954857Y-55594714D02*
X88208857Y-55231857D01*
X88390285Y-55594714D02*
X88390285Y-54832714D01*
X88100000Y-54832714D01*
X88027428Y-54869000D01*
X87991143Y-54905286D01*
X87954857Y-54977857D01*
X87954857Y-55086714D01*
X87991143Y-55159286D01*
X88027428Y-55195571D01*
X88100000Y-55231857D01*
X88390285Y-55231857D01*
X87628285Y-55195571D02*
X87374285Y-55195571D01*
X87265428Y-55594714D02*
X87628285Y-55594714D01*
X87628285Y-54832714D01*
X87265428Y-54832714D01*
X87011428Y-54832714D02*
X86829999Y-55594714D01*
X86684856Y-55050429D01*
X86539714Y-55594714D01*
X86358285Y-54832714D01*
X86067999Y-55594714D02*
X86067999Y-54832714D01*
X86067999Y-55195571D02*
X85632571Y-55195571D01*
X85632571Y-55594714D02*
X85632571Y-54832714D01*
X85378571Y-54832714D02*
X84943142Y-54832714D01*
X85160856Y-55594714D02*
X85160856Y-54832714D01*
X84689142Y-55304429D02*
X84108571Y-55304429D01*
X83382856Y-55594714D02*
X83745713Y-55594714D01*
X83745713Y-54832714D01*
X82729714Y-55594714D02*
X83165142Y-55594714D01*
X82947428Y-55594714D02*
X82947428Y-54832714D01*
X83019999Y-54941571D01*
X83092571Y-55014143D01*
X83165142Y-55050429D01*
X82403142Y-55304429D02*
X81822571Y-55304429D01*
X81314571Y-54832714D02*
X81241999Y-54832714D01*
X81169428Y-54869000D01*
X81133142Y-54905286D01*
X81096856Y-54977857D01*
X81060571Y-55123000D01*
X81060571Y-55304429D01*
X81096856Y-55449571D01*
X81133142Y-55522143D01*
X81169428Y-55558429D01*
X81241999Y-55594714D01*
X81314571Y-55594714D01*
X81387142Y-55558429D01*
X81423428Y-55522143D01*
X81459713Y-55449571D01*
X81495999Y-55304429D01*
X81495999Y-55123000D01*
X81459713Y-54977857D01*
X81423428Y-54905286D01*
X81387142Y-54869000D01*
X81314571Y-54832714D01*
X80588857Y-54832714D02*
X80516285Y-54832714D01*
X80443714Y-54869000D01*
X80407428Y-54905286D01*
X80371142Y-54977857D01*
X80334857Y-55123000D01*
X80334857Y-55304429D01*
X80371142Y-55449571D01*
X80407428Y-55522143D01*
X80443714Y-55558429D01*
X80516285Y-55594714D01*
X80588857Y-55594714D01*
X80661428Y-55558429D01*
X80697714Y-55522143D01*
X80733999Y-55449571D01*
X80770285Y-55304429D01*
X80770285Y-55123000D01*
X80733999Y-54977857D01*
X80697714Y-54905286D01*
X80661428Y-54869000D01*
X80588857Y-54832714D01*
X79863143Y-54832714D02*
X79790571Y-54832714D01*
X79718000Y-54869000D01*
X79681714Y-54905286D01*
X79645428Y-54977857D01*
X79609143Y-55123000D01*
X79609143Y-55304429D01*
X79645428Y-55449571D01*
X79681714Y-55522143D01*
X79718000Y-55558429D01*
X79790571Y-55594714D01*
X79863143Y-55594714D01*
X79935714Y-55558429D01*
X79972000Y-55522143D01*
X80008285Y-55449571D01*
X80044571Y-55304429D01*
X80044571Y-55123000D01*
X80008285Y-54977857D01*
X79972000Y-54905286D01*
X79935714Y-54869000D01*
X79863143Y-54832714D01*
X79137429Y-54832714D02*
X79064857Y-54832714D01*
X78992286Y-54869000D01*
X78956000Y-54905286D01*
X78919714Y-54977857D01*
X78883429Y-55123000D01*
X78883429Y-55304429D01*
X78919714Y-55449571D01*
X78956000Y-55522143D01*
X78992286Y-55558429D01*
X79064857Y-55594714D01*
X79137429Y-55594714D01*
X79210000Y-55558429D01*
X79246286Y-55522143D01*
X79282571Y-55449571D01*
X79318857Y-55304429D01*
X79318857Y-55123000D01*
X79282571Y-54977857D01*
X79246286Y-54905286D01*
X79210000Y-54869000D01*
X79137429Y-54832714D01*
X78556857Y-55304429D02*
X77976286Y-55304429D01*
X77468286Y-54832714D02*
X77395714Y-54832714D01*
X77323143Y-54869000D01*
X77286857Y-54905286D01*
X77250571Y-54977857D01*
X77214286Y-55123000D01*
X77214286Y-55304429D01*
X77250571Y-55449571D01*
X77286857Y-55522143D01*
X77323143Y-55558429D01*
X77395714Y-55594714D01*
X77468286Y-55594714D01*
X77540857Y-55558429D01*
X77577143Y-55522143D01*
X77613428Y-55449571D01*
X77649714Y-55304429D01*
X77649714Y-55123000D01*
X77613428Y-54977857D01*
X77577143Y-54905286D01*
X77540857Y-54869000D01*
X77468286Y-54832714D01*
X76742572Y-54832714D02*
X76670000Y-54832714D01*
X76597429Y-54869000D01*
X76561143Y-54905286D01*
X76524857Y-54977857D01*
X76488572Y-55123000D01*
X76488572Y-55304429D01*
X76524857Y-55449571D01*
X76561143Y-55522143D01*
X76597429Y-55558429D01*
X76670000Y-55594714D01*
X76742572Y-55594714D01*
X76815143Y-55558429D01*
X76851429Y-55522143D01*
X76887714Y-55449571D01*
X76924000Y-55304429D01*
X76924000Y-55123000D01*
X76887714Y-54977857D01*
X76851429Y-54905286D01*
X76815143Y-54869000D01*
X76742572Y-54832714D01*
X75835429Y-54832714D02*
X75980572Y-54832714D01*
X76053143Y-54869000D01*
X76089429Y-54905286D01*
X76162000Y-55014143D01*
X76198286Y-55159286D01*
X76198286Y-55449571D01*
X76162000Y-55522143D01*
X76125715Y-55558429D01*
X76053143Y-55594714D01*
X75908000Y-55594714D01*
X75835429Y-55558429D01*
X75799143Y-55522143D01*
X75762858Y-55449571D01*
X75762858Y-55268143D01*
X75799143Y-55195571D01*
X75835429Y-55159286D01*
X75908000Y-55123000D01*
X76053143Y-55123000D01*
X76125715Y-55159286D01*
X76162000Y-55195571D01*
X76198286Y-55268143D01*
X75436286Y-55195571D02*
X75182286Y-55195571D01*
X75073429Y-55594714D02*
X75436286Y-55594714D01*
X75436286Y-54832714D01*
X75073429Y-54832714D01*
X74384000Y-54832714D02*
X74746857Y-54832714D01*
X74783143Y-55195571D01*
X74746857Y-55159286D01*
X74674286Y-55123000D01*
X74492857Y-55123000D01*
X74420286Y-55159286D01*
X74384000Y-55195571D01*
X74347715Y-55268143D01*
X74347715Y-55449571D01*
X74384000Y-55522143D01*
X74420286Y-55558429D01*
X74492857Y-55594714D01*
X74674286Y-55594714D01*
X74746857Y-55558429D01*
X74783143Y-55522143D01*
X62794000Y-61082714D02*
X62540000Y-61844714D01*
X62286000Y-61082714D01*
X62031999Y-61445571D02*
X61777999Y-61445571D01*
X61669142Y-61844714D02*
X62031999Y-61844714D01*
X62031999Y-61082714D01*
X61669142Y-61082714D01*
X61342570Y-61844714D02*
X61342570Y-61082714D01*
X61088570Y-61627000D01*
X60834570Y-61082714D01*
X60834570Y-61844714D01*
X60108856Y-61844714D02*
X60471713Y-61844714D01*
X60471713Y-61082714D01*
X59528285Y-61082714D02*
X59673428Y-61082714D01*
X59745999Y-61119000D01*
X59782285Y-61155286D01*
X59854856Y-61264143D01*
X59891142Y-61409286D01*
X59891142Y-61699571D01*
X59854856Y-61772143D01*
X59818571Y-61808429D01*
X59745999Y-61844714D01*
X59600856Y-61844714D01*
X59528285Y-61808429D01*
X59491999Y-61772143D01*
X59455714Y-61699571D01*
X59455714Y-61518143D01*
X59491999Y-61445571D01*
X59528285Y-61409286D01*
X59600856Y-61373000D01*
X59745999Y-61373000D01*
X59818571Y-61409286D01*
X59854856Y-61445571D01*
X59891142Y-61518143D01*
X58984000Y-61082714D02*
X58911428Y-61082714D01*
X58838857Y-61119000D01*
X58802571Y-61155286D01*
X58766285Y-61227857D01*
X58730000Y-61373000D01*
X58730000Y-61554429D01*
X58766285Y-61699571D01*
X58802571Y-61772143D01*
X58838857Y-61808429D01*
X58911428Y-61844714D01*
X58984000Y-61844714D01*
X59056571Y-61808429D01*
X59092857Y-61772143D01*
X59129142Y-61699571D01*
X59165428Y-61554429D01*
X59165428Y-61373000D01*
X59129142Y-61227857D01*
X59092857Y-61155286D01*
X59056571Y-61119000D01*
X58984000Y-61082714D01*
X58076857Y-61336714D02*
X58076857Y-61844714D01*
X58258286Y-61046429D02*
X58439714Y-61590714D01*
X57968000Y-61590714D01*
X57532572Y-61082714D02*
X57460000Y-61082714D01*
X57387429Y-61119000D01*
X57351143Y-61155286D01*
X57314857Y-61227857D01*
X57278572Y-61373000D01*
X57278572Y-61554429D01*
X57314857Y-61699571D01*
X57351143Y-61772143D01*
X57387429Y-61808429D01*
X57460000Y-61844714D01*
X57532572Y-61844714D01*
X57605143Y-61808429D01*
X57641429Y-61772143D01*
X57677714Y-61699571D01*
X57714000Y-61554429D01*
X57714000Y-61373000D01*
X57677714Y-61227857D01*
X57641429Y-61155286D01*
X57605143Y-61119000D01*
X57532572Y-61082714D01*
D10*
X59000000Y-60600000D02*
X59000000Y-59400000D01*
X59000000Y-59400000D02*
X61000000Y-59400000D01*
X61000000Y-59400000D02*
X61000000Y-60600000D01*
X61000000Y-60600000D02*
X59000000Y-60600000D01*
M02*
