G04 #@! TF.FileFunction,Profile,NP*
%FSLAX46Y46*%
G04 Gerber Fmt 4.6, Leading zero omitted, Abs format (unit mm)*
G04 Created by KiCad (PCBNEW (2015-09-02 BZR 6149, Git 4a56ee4)-product) date 11/10/2015 2:24:38 PM*
%MOMM*%
G01*
G04 APERTURE LIST*
%ADD10C,0.100000*%
%ADD11C,0.150000*%
G04 APERTURE END LIST*
D10*
D11*
X91000000Y-70000000D02*
X73000000Y-70000000D01*
X91000000Y-70000000D02*
G75*
G03X92000000Y-69000000I0J1000000D01*
G01*
X92000000Y-51000000D02*
X92000000Y-69000000D01*
X92000000Y-51000000D02*
G75*
G03X91000000Y-50000000I-1000000J0D01*
G01*
X73000000Y-50000000D02*
X91000000Y-50000000D01*
X73000000Y-50000000D02*
G75*
G03X72000000Y-51000000I0J-1000000D01*
G01*
X72000000Y-69000000D02*
G75*
G03X73000000Y-70000000I1000000J0D01*
G01*
X70000000Y-66000000D02*
X72000000Y-66000000D01*
X70000000Y-69000000D02*
X70000000Y-66000000D01*
X72000000Y-57000000D02*
X70000000Y-57000000D01*
X70000000Y-54000000D02*
X72000000Y-54000000D01*
X70000000Y-63000000D02*
X72000000Y-63000000D01*
X70000000Y-57000000D02*
X70000000Y-63000000D01*
X70000000Y-51000000D02*
X70000000Y-54000000D01*
X72000000Y-57000000D02*
X72000000Y-63000000D01*
X72000000Y-51000000D02*
X72000000Y-54000000D01*
X72000000Y-69000000D02*
X72000000Y-66000000D01*
X50000000Y-69000000D02*
G75*
G03X51000000Y-70000000I1000000J0D01*
G01*
X69000000Y-70000000D02*
G75*
G03X70000000Y-69000000I0J1000000D01*
G01*
X70000000Y-51000000D02*
G75*
G03X69000000Y-50000000I-1000000J0D01*
G01*
X51000000Y-50000000D02*
G75*
G03X50000000Y-51000000I0J-1000000D01*
G01*
X69000000Y-50000000D02*
X51000000Y-50000000D01*
X51000000Y-70000000D02*
X69000000Y-70000000D01*
X50000000Y-51000000D02*
X50000000Y-69000000D01*
M02*
