G04 #@! TF.FileFunction,Copper,L1,Top,Signal*
%FSLAX46Y46*%
G04 Gerber Fmt 4.6, Leading zero omitted, Abs format (unit mm)*
G04 Created by KiCad (PCBNEW (2015-09-02 BZR 6149, Git 4a56ee4)-product) date 11/10/2015 2:24:38 PM*
%MOMM*%
G01*
G04 APERTURE LIST*
%ADD10C,0.100000*%
%ADD11R,0.800000X0.750000*%
%ADD12R,0.250000X0.700000*%
%ADD13R,0.700000X0.250000*%
%ADD14R,1.725000X1.725000*%
%ADD15R,1.727200X2.032000*%
%ADD16O,1.727200X2.032000*%
%ADD17R,0.800100X0.800100*%
%ADD18R,0.900000X0.500000*%
%ADD19R,0.500000X0.900000*%
%ADD20R,3.657600X2.032000*%
%ADD21R,1.016000X2.032000*%
%ADD22C,0.635000*%
%ADD23R,0.762000X0.762000*%
%ADD24C,0.762000*%
%ADD25C,0.508000*%
%ADD26C,0.152400*%
%ADD27C,0.254000*%
%ADD28C,0.600000*%
%ADD29C,0.250000*%
G04 APERTURE END LIST*
D10*
D11*
X76250000Y-55750000D03*
X74750000Y-55750000D03*
X60750000Y-58500000D03*
X59250000Y-58500000D03*
D12*
X77500000Y-57600000D03*
X77000000Y-57600000D03*
X76500000Y-57600000D03*
X76000000Y-57600000D03*
X75500000Y-57600000D03*
X75000000Y-57600000D03*
X74500000Y-57600000D03*
X74000000Y-57600000D03*
D13*
X73350000Y-58250000D03*
X73350000Y-58750000D03*
X73350000Y-59250000D03*
X73350000Y-59750000D03*
X73350000Y-60250000D03*
X73350000Y-60750000D03*
X73350000Y-61250000D03*
X73350000Y-61750000D03*
D12*
X74000000Y-62400000D03*
X74500000Y-62400000D03*
X75000000Y-62400000D03*
X75500000Y-62400000D03*
X76000000Y-62400000D03*
X76500000Y-62400000D03*
X77000000Y-62400000D03*
X77500000Y-62400000D03*
D13*
X78150000Y-61750000D03*
X78150000Y-61250000D03*
X78150000Y-60750000D03*
X78150000Y-60250000D03*
X78150000Y-59750000D03*
X78150000Y-59250000D03*
X78150000Y-58750000D03*
X78150000Y-58250000D03*
D14*
X74887500Y-60862500D03*
X76612500Y-60862500D03*
X74887500Y-59137500D03*
X76612500Y-59137500D03*
D15*
X78000000Y-52000000D03*
D16*
X80540000Y-52000000D03*
X83080000Y-52000000D03*
X85620000Y-52000000D03*
D15*
X78000000Y-68000000D03*
D16*
X80540000Y-68000000D03*
X83080000Y-68000000D03*
X85620000Y-68000000D03*
D15*
X56000000Y-52000000D03*
D16*
X58540000Y-52000000D03*
X61080000Y-52000000D03*
X63620000Y-52000000D03*
D15*
X56000000Y-68000000D03*
D16*
X58540000Y-68000000D03*
X61080000Y-68000000D03*
X63620000Y-68000000D03*
D17*
X58050000Y-57000760D03*
X59950000Y-57000760D03*
X59000000Y-55001780D03*
X62050000Y-57000760D03*
X63950000Y-57000760D03*
X63000000Y-55001780D03*
D18*
X83000000Y-59250000D03*
X83000000Y-60750000D03*
X80750000Y-59250000D03*
X80750000Y-60750000D03*
D19*
X60750000Y-62500000D03*
X59250000Y-62500000D03*
X62250000Y-62500000D03*
X63750000Y-62500000D03*
X74750000Y-68750000D03*
X73250000Y-68750000D03*
X83000000Y-64750000D03*
X84500000Y-64750000D03*
D17*
X76499240Y-63550000D03*
X76499240Y-65450000D03*
X78498220Y-64500000D03*
D20*
X53500000Y-57698000D03*
D21*
X53500000Y-64302000D03*
X55786000Y-64302000D03*
X51214000Y-64302000D03*
D20*
X88900000Y-51308000D03*
D21*
X88900000Y-57912000D03*
X91186000Y-57912000D03*
X86614000Y-57912000D03*
D22*
X70250000Y-54500000D03*
X70250000Y-55500000D03*
X70250000Y-56500000D03*
X71750000Y-56500000D03*
X71750000Y-55500000D03*
X71750000Y-54500000D03*
X70250000Y-63500000D03*
X70250000Y-64500000D03*
X70250000Y-65500000D03*
X71750000Y-63500000D03*
X71750000Y-64500000D03*
X71750000Y-65500000D03*
D23*
X73365000Y-63730000D03*
D24*
X74635000Y-63730000D03*
X73365000Y-65000000D03*
X74635000Y-65000000D03*
X73365000Y-66270000D03*
X74635000Y-66270000D03*
X90000000Y-55500000D03*
D25*
X80750000Y-64750000D03*
X85750000Y-64750000D03*
X83000000Y-63750000D03*
X80500000Y-63750000D03*
X80000000Y-54500000D03*
X77750000Y-56000000D03*
X58100000Y-58600000D03*
X60000000Y-62500000D03*
X61900000Y-58200000D03*
X79750000Y-64500000D03*
D24*
X89000000Y-60000000D03*
D25*
X61900000Y-60400000D03*
X58100000Y-60300000D03*
D26*
X83000000Y-59250000D02*
X85250000Y-59250000D01*
X91186000Y-59564000D02*
X91186000Y-57912000D01*
X90000000Y-60750000D02*
X91186000Y-59564000D01*
X86750000Y-60750000D02*
X90000000Y-60750000D01*
X85250000Y-59250000D02*
X86750000Y-60750000D01*
X80750000Y-59250000D02*
X80750000Y-54250000D01*
X80750000Y-54250000D02*
X78500000Y-52000000D01*
X78500000Y-52000000D02*
X78000000Y-52000000D01*
X76250000Y-55750000D02*
X76250000Y-55500000D01*
X76250000Y-55500000D02*
X76000000Y-55250000D01*
D27*
X75500000Y-68000000D02*
X78000000Y-68000000D01*
X74635000Y-63730000D02*
X75500000Y-64595000D01*
X75500000Y-68000000D02*
X74750000Y-68750000D01*
X75500000Y-64595000D02*
X75500000Y-68000000D01*
D26*
X76000000Y-57600000D02*
X76000000Y-55250000D01*
X76000000Y-55250000D02*
X76000000Y-54000000D01*
X76000000Y-54000000D02*
X78000000Y-52000000D01*
D28*
X91186000Y-56686000D02*
X91186000Y-57912000D01*
X90000000Y-55500000D02*
X91186000Y-56686000D01*
D26*
X84500000Y-64750000D02*
X85750000Y-64750000D01*
D28*
X76499240Y-65450000D02*
X76549240Y-65500000D01*
X76549240Y-65500000D02*
X80000000Y-65500000D01*
X80000000Y-65500000D02*
X80750000Y-64750000D01*
X85750000Y-64750000D02*
X85750000Y-67870000D01*
X85750000Y-67870000D02*
X85620000Y-68000000D01*
D26*
X75500000Y-57600000D02*
X75500000Y-58525000D01*
X75500000Y-58525000D02*
X74887500Y-59137500D01*
X74887500Y-59137500D02*
X76612500Y-59137500D01*
X76612500Y-59137500D02*
X74887500Y-60862500D01*
X74887500Y-60862500D02*
X76612500Y-60862500D01*
X76612500Y-60862500D02*
X76000000Y-61475000D01*
X76000000Y-61475000D02*
X76000000Y-62400000D01*
X75500000Y-57600000D02*
X75500000Y-56500000D01*
X75500000Y-56500000D02*
X74750000Y-55750000D01*
X74750000Y-55750000D02*
X74750000Y-52000000D01*
X74750000Y-52000000D02*
X76250000Y-50500000D01*
X76250000Y-50500000D02*
X84120000Y-50500000D01*
X84120000Y-50500000D02*
X85620000Y-52000000D01*
D28*
X85620000Y-52000000D02*
X85620000Y-56918000D01*
X85620000Y-56918000D02*
X86614000Y-57912000D01*
D26*
X73350000Y-61750000D02*
X73350000Y-63715000D01*
X73350000Y-63715000D02*
X73365000Y-63730000D01*
X73365000Y-65000000D02*
X73500000Y-65000000D01*
X73500000Y-65000000D02*
X74000000Y-64500000D01*
X74000000Y-64500000D02*
X74000000Y-62400000D01*
X76499240Y-63550000D02*
X80300000Y-63550000D01*
X83000000Y-63750000D02*
X83000000Y-64750000D01*
X80300000Y-63550000D02*
X80500000Y-63750000D01*
X76499240Y-63550000D02*
X76699240Y-63750000D01*
X75000000Y-62400000D02*
X75000000Y-63000000D01*
X75550000Y-63550000D02*
X76499240Y-63550000D01*
X75000000Y-63000000D02*
X75550000Y-63550000D01*
X80750000Y-60750000D02*
X78150000Y-60750000D01*
X78150000Y-60750000D02*
X81500000Y-60750000D01*
D27*
X80540000Y-52000000D02*
X80540000Y-53040000D01*
X80540000Y-66710000D02*
X80540000Y-68000000D01*
X81500000Y-65750000D02*
X80540000Y-66710000D01*
X81500000Y-54000000D02*
X81500000Y-60750000D01*
X81500000Y-60750000D02*
X81500000Y-65750000D01*
X80540000Y-53040000D02*
X81500000Y-54000000D01*
D26*
X83000000Y-60750000D02*
X82000000Y-60750000D01*
X78150000Y-60250000D02*
X79250000Y-60250000D01*
X80000000Y-59500000D02*
X80000000Y-54500000D01*
X79250000Y-60250000D02*
X80000000Y-59500000D01*
D27*
X83080000Y-68000000D02*
X83080000Y-66830000D01*
X83000000Y-53000000D02*
X83080000Y-52000000D01*
X82000000Y-54000000D02*
X83000000Y-53000000D01*
X82000000Y-65750000D02*
X82000000Y-60750000D01*
X82000000Y-60750000D02*
X82000000Y-54000000D01*
X83080000Y-66830000D02*
X82000000Y-65750000D01*
D26*
X79000000Y-59750000D02*
X78150000Y-59750000D01*
X79500000Y-59250000D02*
X79000000Y-59750000D01*
X79500000Y-57750000D02*
X79500000Y-59250000D01*
X77750000Y-56000000D02*
X79500000Y-57750000D01*
X73250000Y-68750000D02*
X73250000Y-66385000D01*
X73250000Y-66385000D02*
X73365000Y-66270000D01*
X72500000Y-62500000D02*
X72500000Y-65125000D01*
X72750000Y-61250000D02*
X72500000Y-61500000D01*
X72500000Y-61500000D02*
X72500000Y-62500000D01*
X73350000Y-61250000D02*
X72750000Y-61250000D01*
X74010000Y-65625000D02*
X74635000Y-65000000D01*
X73000000Y-65625000D02*
X74010000Y-65625000D01*
X72500000Y-65125000D02*
X73000000Y-65625000D01*
X59399240Y-57000760D02*
X59950000Y-57000760D01*
X58100000Y-58300000D02*
X59399240Y-57000760D01*
X58100000Y-58600000D02*
X58100000Y-58300000D01*
X60000000Y-62500000D02*
X59250000Y-62500000D01*
X63750000Y-62500000D02*
X63900000Y-62350000D01*
X63900000Y-62350000D02*
X63900000Y-58300000D01*
X63900000Y-58300000D02*
X63800000Y-58200000D01*
X63800000Y-58200000D02*
X63950000Y-58200000D01*
X63800000Y-58200000D02*
X63900000Y-58200000D01*
X61900000Y-58200000D02*
X63800000Y-58200000D01*
X63950000Y-58200000D02*
X63900000Y-58200000D01*
X63950000Y-57000760D02*
X63950000Y-62300000D01*
X63950000Y-62300000D02*
X63750000Y-62500000D01*
D28*
X78498220Y-64500000D02*
X79750000Y-64500000D01*
X88900000Y-57912000D02*
X88900000Y-51308000D01*
X89000000Y-60000000D02*
X89000000Y-58012000D01*
X89000000Y-58012000D02*
X88900000Y-57912000D01*
D26*
X60750000Y-58500000D02*
X61300000Y-58500000D01*
X61900000Y-59100000D02*
X61900000Y-60400000D01*
X61300000Y-58500000D02*
X61900000Y-59100000D01*
X61900000Y-61300000D02*
X60750000Y-62450000D01*
X61900000Y-60400000D02*
X61900000Y-61300000D01*
X60750000Y-62450000D02*
X60750000Y-62500000D01*
X62050000Y-57000760D02*
X62050000Y-56950000D01*
X62050000Y-56950000D02*
X63000000Y-56000000D01*
X63750000Y-64000000D02*
X62250000Y-62500000D01*
X65250000Y-64000000D02*
X63750000Y-64000000D01*
X66000000Y-63250000D02*
X65250000Y-64000000D01*
X66000000Y-56750000D02*
X66000000Y-63250000D01*
X65250000Y-56000000D02*
X66000000Y-56750000D01*
X63000000Y-56000000D02*
X65250000Y-56000000D01*
X62250000Y-62500000D02*
X60750000Y-62500000D01*
X57750000Y-57300760D02*
X58050000Y-57000760D01*
X58050000Y-57000760D02*
X58050000Y-56950000D01*
X58050000Y-56950000D02*
X59000000Y-56000000D01*
X61049240Y-56000000D02*
X62050000Y-57000760D01*
X59000000Y-56000000D02*
X61049240Y-56000000D01*
D27*
X53500000Y-64302000D02*
X53500000Y-57698000D01*
X53500000Y-57698000D02*
X54197240Y-57000760D01*
X54197240Y-57000760D02*
X58050000Y-57000760D01*
D26*
X63620000Y-68000000D02*
X63620000Y-67820000D01*
X63620000Y-67820000D02*
X60700000Y-64900000D01*
X58100000Y-64100000D02*
X58100000Y-60300000D01*
X58900000Y-64900000D02*
X58100000Y-64100000D01*
X60700000Y-64900000D02*
X58900000Y-64900000D01*
X59250000Y-58500000D02*
X59100000Y-58500000D01*
X59100000Y-58500000D02*
X58100000Y-59500000D01*
X58100000Y-59500000D02*
X58100000Y-60300000D01*
D27*
X51214000Y-64302000D02*
X51214000Y-67714000D01*
X62120000Y-69500000D02*
X63620000Y-68000000D01*
X53000000Y-69500000D02*
X62120000Y-69500000D01*
X51214000Y-67714000D02*
X53000000Y-69500000D01*
X56000000Y-68000000D02*
X56000000Y-64516000D01*
X56000000Y-64516000D02*
X55786000Y-64302000D01*
D29*
X56000000Y-68000000D02*
X55786000Y-67786000D01*
D26*
X58540000Y-52000000D02*
X58540000Y-54541780D01*
X58540000Y-54541780D02*
X59000000Y-55001780D01*
X61080000Y-52000000D02*
X61080000Y-53081780D01*
X61080000Y-53081780D02*
X63000000Y-55001780D01*
M02*
