M48
;DRILL file {KiCad (2015-09-02 BZR 6149, Git 4a56ee4)-product} date 11/10/2015 2:24:42 PM
;FORMAT={-:-/ absolute / metric / decimal}
FMAT,2
METRIC,TZ
T1C0.330
T2C0.457
T3C0.635
T4C1.016
%
G90
G05
M71
T1
X58.1Y-58.6
X58.1Y-60.3
X60.Y-62.5
X61.9Y-58.2
X61.9Y-60.4
X77.75Y-56.
X79.75Y-64.5
X80.Y-54.5
X80.5Y-63.75
X80.75Y-64.75
X83.Y-63.75
X85.75Y-64.75
T2
X73.365Y-63.73
X73.365Y-65.
X73.365Y-66.27
X74.635Y-63.73
X74.635Y-65.
X74.635Y-66.27
X89.Y-60.
X90.Y-55.5
T3
X70.25Y-54.5
X70.25Y-55.5
X70.25Y-56.5
X70.25Y-63.5
X70.25Y-64.5
X70.25Y-65.5
X71.75Y-54.5
X71.75Y-55.5
X71.75Y-56.5
X71.75Y-63.5
X71.75Y-64.5
X71.75Y-65.5
T4
X56.Y-52.
X56.Y-68.
X58.54Y-52.
X58.54Y-68.
X61.08Y-52.
X61.08Y-68.
X63.62Y-52.
X63.62Y-68.
X78.Y-52.
X78.Y-68.
X80.54Y-52.
X80.54Y-68.
X83.08Y-52.
X83.08Y-68.
X85.62Y-52.
X85.62Y-68.
T0
M30
