G04 #@! TF.FileFunction,Copper,L1,Top,Signal*
%FSLAX46Y46*%
G04 Gerber Fmt 4.6, Leading zero omitted, Abs format (unit mm)*
G04 Created by KiCad (PCBNEW (after 2015-may-01 BZR unknown)-product) date 11/9/2015 22:45:34*
%MOMM*%
G01*
G04 APERTURE LIST*
%ADD10C,0.100000*%
%ADD11R,0.800000X0.750000*%
%ADD12R,0.750000X0.800000*%
%ADD13R,0.700000X0.250000*%
%ADD14R,0.250000X0.700000*%
%ADD15R,1.725000X1.725000*%
%ADD16R,2.032000X1.727200*%
%ADD17O,2.032000X1.727200*%
%ADD18R,1.727200X2.032000*%
%ADD19O,1.727200X2.032000*%
%ADD20R,1.727200X1.727200*%
%ADD21O,1.727200X1.727200*%
%ADD22R,0.800100X0.800100*%
%ADD23R,0.500000X0.900000*%
%ADD24R,5.600000X6.460000*%
%ADD25R,1.400000X6.460000*%
%ADD26R,1.500000X1.500000*%
%ADD27R,3.657600X2.032000*%
%ADD28R,1.016000X2.032000*%
%ADD29R,0.900000X0.350000*%
%ADD30R,1.000000X0.350000*%
%ADD31C,0.635000*%
%ADD32C,0.254000*%
%ADD33C,0.250000*%
G04 APERTURE END LIST*
D10*
D11*
X130250000Y-107000000D03*
X131750000Y-107000000D03*
D12*
X66000000Y-59750000D03*
X66000000Y-61250000D03*
D13*
X141600000Y-81250000D03*
X141600000Y-81750000D03*
X141600000Y-82250000D03*
X141600000Y-82750000D03*
X141600000Y-83250000D03*
X141600000Y-83750000D03*
X141600000Y-84250000D03*
X141600000Y-84750000D03*
D14*
X142250000Y-85400000D03*
X142750000Y-85400000D03*
X143250000Y-85400000D03*
X143750000Y-85400000D03*
X144250000Y-85400000D03*
X144750000Y-85400000D03*
X145250000Y-85400000D03*
X145750000Y-85400000D03*
D13*
X146400000Y-84750000D03*
X146400000Y-84250000D03*
X146400000Y-83750000D03*
X146400000Y-83250000D03*
X146400000Y-82750000D03*
X146400000Y-82250000D03*
X146400000Y-81750000D03*
X146400000Y-81250000D03*
D14*
X145750000Y-80600000D03*
X145250000Y-80600000D03*
X144750000Y-80600000D03*
X144250000Y-80600000D03*
X143750000Y-80600000D03*
X143250000Y-80600000D03*
X142750000Y-80600000D03*
X142250000Y-80600000D03*
D15*
X144862500Y-83862500D03*
X144862500Y-82137500D03*
X143137500Y-83862500D03*
X143137500Y-82137500D03*
D16*
X181000000Y-107000000D03*
D17*
X181000000Y-109540000D03*
X181000000Y-112080000D03*
X181000000Y-114620000D03*
D16*
X167000000Y-120000000D03*
D17*
X167000000Y-122540000D03*
X167000000Y-125080000D03*
X167000000Y-127620000D03*
D18*
X56000000Y-52000000D03*
D19*
X58540000Y-52000000D03*
X61080000Y-52000000D03*
X63620000Y-52000000D03*
D18*
X56000000Y-68000000D03*
D19*
X58540000Y-68000000D03*
X61080000Y-68000000D03*
X63620000Y-68000000D03*
D20*
X159000000Y-86000000D03*
D21*
X161540000Y-86000000D03*
X159000000Y-88540000D03*
X161540000Y-88540000D03*
X159000000Y-91080000D03*
X161540000Y-91080000D03*
D22*
X58050000Y-57000760D03*
X59950000Y-57000760D03*
X59000000Y-55001780D03*
X62050000Y-57000760D03*
X63950000Y-57000760D03*
X63000000Y-55001780D03*
D23*
X151250000Y-104000000D03*
X152750000Y-104000000D03*
X144250000Y-106000000D03*
X145750000Y-106000000D03*
X59750000Y-62500000D03*
X58250000Y-62500000D03*
X61250000Y-62500000D03*
X62750000Y-62500000D03*
X157250000Y-119000000D03*
X158750000Y-119000000D03*
X160250000Y-105000000D03*
X161750000Y-105000000D03*
D24*
X98000000Y-82000000D03*
D25*
X101850000Y-82000000D03*
X94150000Y-82000000D03*
D26*
X76000000Y-97000000D03*
X76000000Y-101000000D03*
X78000000Y-97000000D03*
X78000000Y-101000000D03*
X80000000Y-97000000D03*
X80000000Y-101000000D03*
X82000000Y-97000000D03*
X82000000Y-101000000D03*
X84000000Y-97000000D03*
X84000000Y-101000000D03*
D22*
X84050000Y-90000760D03*
X85950000Y-90000760D03*
X85000000Y-88001780D03*
D27*
X53500000Y-57698000D03*
D28*
X53500000Y-64302000D03*
X55786000Y-64302000D03*
X51214000Y-64302000D03*
D29*
X60900000Y-59650000D03*
D30*
X60850000Y-60350000D03*
D29*
X59100000Y-59650000D03*
X59100000Y-60350000D03*
D27*
X113000000Y-64698000D03*
D28*
X113000000Y-71302000D03*
X115286000Y-71302000D03*
X110714000Y-71302000D03*
D31*
X70250000Y-54500000D03*
X70250000Y-55500000D03*
X70250000Y-56500000D03*
X71750000Y-56500000D03*
X71750000Y-55500000D03*
X71750000Y-54500000D03*
X70250000Y-63500000D03*
X70250000Y-64500000D03*
X70250000Y-65500000D03*
X71750000Y-63500000D03*
X71750000Y-64500000D03*
X71750000Y-65500000D03*
D32*
X56000000Y-52000000D02*
X56000000Y-68000000D01*
D33*
X56000000Y-68000000D02*
X55786000Y-67786000D01*
M02*
