G04 #@! TF.FileFunction,Legend,Top*
%FSLAX46Y46*%
G04 Gerber Fmt 4.6, Leading zero omitted, Abs format (unit mm)*
G04 Created by KiCad (PCBNEW (after 2015-may-01 BZR unknown)-product) date 11/9/2015 22:45:34*
%MOMM*%
G01*
G04 APERTURE LIST*
%ADD10C,0.100000*%
%ADD11C,0.150000*%
%ADD12C,0.203200*%
G04 APERTURE END LIST*
D10*
D11*
X130650000Y-106400000D02*
X131350000Y-106400000D01*
X131350000Y-107600000D02*
X130650000Y-107600000D01*
X66600000Y-60150000D02*
X66600000Y-60850000D01*
X65400000Y-60850000D02*
X65400000Y-60150000D01*
X146625000Y-80375000D02*
X146625000Y-80900000D01*
X141375000Y-85625000D02*
X141375000Y-85100000D01*
X146625000Y-85625000D02*
X146625000Y-85100000D01*
X141375000Y-80375000D02*
X141900000Y-80375000D01*
X141375000Y-85625000D02*
X141900000Y-85625000D01*
X146625000Y-85625000D02*
X146100000Y-85625000D01*
X146625000Y-80375000D02*
X146100000Y-80375000D01*
X179730000Y-108270000D02*
X179730000Y-115890000D01*
X182270000Y-108270000D02*
X182270000Y-115890000D01*
X182550000Y-105450000D02*
X182550000Y-107000000D01*
X179730000Y-115890000D02*
X182270000Y-115890000D01*
X182270000Y-108270000D02*
X179730000Y-108270000D01*
X179450000Y-107000000D02*
X179450000Y-105450000D01*
X179450000Y-105450000D02*
X182550000Y-105450000D01*
X165730000Y-121270000D02*
X165730000Y-128890000D01*
X168270000Y-121270000D02*
X168270000Y-128890000D01*
X168550000Y-118450000D02*
X168550000Y-120000000D01*
X165730000Y-128890000D02*
X168270000Y-128890000D01*
X168270000Y-121270000D02*
X165730000Y-121270000D01*
X165450000Y-120000000D02*
X165450000Y-118450000D01*
X165450000Y-118450000D02*
X168550000Y-118450000D01*
X57270000Y-53270000D02*
X64890000Y-53270000D01*
X57270000Y-50730000D02*
X64890000Y-50730000D01*
X54450000Y-50450000D02*
X56000000Y-50450000D01*
X64890000Y-53270000D02*
X64890000Y-50730000D01*
X57270000Y-50730000D02*
X57270000Y-53270000D01*
X56000000Y-53550000D02*
X54450000Y-53550000D01*
X54450000Y-53550000D02*
X54450000Y-50450000D01*
X57270000Y-69270000D02*
X64890000Y-69270000D01*
X57270000Y-66730000D02*
X64890000Y-66730000D01*
X54450000Y-66450000D02*
X56000000Y-66450000D01*
X64890000Y-69270000D02*
X64890000Y-66730000D01*
X57270000Y-66730000D02*
X57270000Y-69270000D01*
X56000000Y-69550000D02*
X54450000Y-69550000D01*
X54450000Y-69550000D02*
X54450000Y-66450000D01*
X157730000Y-87270000D02*
X157730000Y-92350000D01*
X157450000Y-84450000D02*
X159000000Y-84450000D01*
X160270000Y-84730000D02*
X160270000Y-87270000D01*
X160270000Y-87270000D02*
X157730000Y-87270000D01*
X157730000Y-92350000D02*
X162810000Y-92350000D01*
X162810000Y-92350000D02*
X162810000Y-87270000D01*
X157450000Y-84450000D02*
X157450000Y-86000000D01*
X162810000Y-84730000D02*
X160270000Y-84730000D01*
X162810000Y-87270000D02*
X162810000Y-84730000D01*
X60299160Y-55349760D02*
X60250900Y-55349760D01*
X57500180Y-56050800D02*
X57500180Y-55349760D01*
X57500180Y-55349760D02*
X57749100Y-55349760D01*
X60299160Y-55349760D02*
X60499820Y-55349760D01*
X60499820Y-55349760D02*
X60499820Y-56050800D01*
X64299160Y-55349760D02*
X64250900Y-55349760D01*
X61500180Y-56050800D02*
X61500180Y-55349760D01*
X61500180Y-55349760D02*
X61749100Y-55349760D01*
X64299160Y-55349760D02*
X64499820Y-55349760D01*
X64499820Y-55349760D02*
X64499820Y-56050800D01*
X152500000Y-104675000D02*
X151500000Y-104675000D01*
X151500000Y-103325000D02*
X152500000Y-103325000D01*
X145500000Y-106675000D02*
X144500000Y-106675000D01*
X144500000Y-105325000D02*
X145500000Y-105325000D01*
X58500000Y-61825000D02*
X59500000Y-61825000D01*
X59500000Y-63175000D02*
X58500000Y-63175000D01*
X62500000Y-63175000D02*
X61500000Y-63175000D01*
X61500000Y-61825000D02*
X62500000Y-61825000D01*
X158500000Y-119675000D02*
X157500000Y-119675000D01*
X157500000Y-118325000D02*
X158500000Y-118325000D01*
X161500000Y-105675000D02*
X160500000Y-105675000D01*
X160500000Y-104325000D02*
X161500000Y-104325000D01*
X86299160Y-88349760D02*
X86250900Y-88349760D01*
X83500180Y-89050800D02*
X83500180Y-88349760D01*
X83500180Y-88349760D02*
X83749100Y-88349760D01*
X86299160Y-88349760D02*
X86499820Y-88349760D01*
X86499820Y-88349760D02*
X86499820Y-89050800D01*
D12*
X49944000Y-62524000D02*
X49944000Y-65572000D01*
X49944000Y-65572000D02*
X57056000Y-65572000D01*
X57056000Y-65572000D02*
X57056000Y-62524000D01*
X49944000Y-59476000D02*
X49944000Y-58714000D01*
X49944000Y-58714000D02*
X51468000Y-56428000D01*
X51468000Y-56428000D02*
X55532000Y-56428000D01*
X55532000Y-56428000D02*
X57056000Y-58714000D01*
X57056000Y-58714000D02*
X57056000Y-59476000D01*
D10*
X59000000Y-59400000D02*
X59000000Y-60600000D01*
X59000000Y-60600000D02*
X61000000Y-60600000D01*
X61000000Y-60600000D02*
X61000000Y-59400000D01*
X61000000Y-59400000D02*
X59000000Y-59400000D01*
D12*
X109444000Y-69524000D02*
X109444000Y-72572000D01*
X109444000Y-72572000D02*
X116556000Y-72572000D01*
X116556000Y-72572000D02*
X116556000Y-69524000D01*
X109444000Y-66476000D02*
X109444000Y-65714000D01*
X109444000Y-65714000D02*
X110968000Y-63428000D01*
X110968000Y-63428000D02*
X115032000Y-63428000D01*
X115032000Y-63428000D02*
X116556000Y-65714000D01*
X116556000Y-65714000D02*
X116556000Y-66476000D01*
D11*
X130833334Y-105457143D02*
X130785715Y-105504762D01*
X130642858Y-105552381D01*
X130547620Y-105552381D01*
X130404762Y-105504762D01*
X130309524Y-105409524D01*
X130261905Y-105314286D01*
X130214286Y-105123810D01*
X130214286Y-104980952D01*
X130261905Y-104790476D01*
X130309524Y-104695238D01*
X130404762Y-104600000D01*
X130547620Y-104552381D01*
X130642858Y-104552381D01*
X130785715Y-104600000D01*
X130833334Y-104647619D01*
X131785715Y-105552381D02*
X131214286Y-105552381D01*
X131500000Y-105552381D02*
X131500000Y-104552381D01*
X131404762Y-104695238D01*
X131309524Y-104790476D01*
X131214286Y-104838095D01*
X68257143Y-60666666D02*
X68304762Y-60714285D01*
X68352381Y-60857142D01*
X68352381Y-60952380D01*
X68304762Y-61095238D01*
X68209524Y-61190476D01*
X68114286Y-61238095D01*
X67923810Y-61285714D01*
X67780952Y-61285714D01*
X67590476Y-61238095D01*
X67495238Y-61190476D01*
X67400000Y-61095238D01*
X67352381Y-60952380D01*
X67352381Y-60857142D01*
X67400000Y-60714285D01*
X67447619Y-60666666D01*
X67447619Y-60285714D02*
X67400000Y-60238095D01*
X67352381Y-60142857D01*
X67352381Y-59904761D01*
X67400000Y-59809523D01*
X67447619Y-59761904D01*
X67542857Y-59714285D01*
X67638095Y-59714285D01*
X67780952Y-59761904D01*
X68352381Y-60333333D01*
X68352381Y-59714285D01*
X143023810Y-79702381D02*
X143023810Y-78702381D01*
X144071429Y-79607143D02*
X144023810Y-79654762D01*
X143880953Y-79702381D01*
X143785715Y-79702381D01*
X143642857Y-79654762D01*
X143547619Y-79559524D01*
X143500000Y-79464286D01*
X143452381Y-79273810D01*
X143452381Y-79130952D01*
X143500000Y-78940476D01*
X143547619Y-78845238D01*
X143642857Y-78750000D01*
X143785715Y-78702381D01*
X143880953Y-78702381D01*
X144023810Y-78750000D01*
X144071429Y-78797619D01*
X145023810Y-79702381D02*
X144452381Y-79702381D01*
X144738095Y-79702381D02*
X144738095Y-78702381D01*
X144642857Y-78845238D01*
X144547619Y-78940476D01*
X144452381Y-78988095D01*
X180261905Y-102352381D02*
X180261905Y-101352381D01*
X180642858Y-101352381D01*
X180738096Y-101400000D01*
X180785715Y-101447619D01*
X180833334Y-101542857D01*
X180833334Y-101685714D01*
X180785715Y-101780952D01*
X180738096Y-101828571D01*
X180642858Y-101876190D01*
X180261905Y-101876190D01*
X181785715Y-102352381D02*
X181214286Y-102352381D01*
X181500000Y-102352381D02*
X181500000Y-101352381D01*
X181404762Y-101495238D01*
X181309524Y-101590476D01*
X181214286Y-101638095D01*
X166261905Y-115352381D02*
X166261905Y-114352381D01*
X166642858Y-114352381D01*
X166738096Y-114400000D01*
X166785715Y-114447619D01*
X166833334Y-114542857D01*
X166833334Y-114685714D01*
X166785715Y-114780952D01*
X166738096Y-114828571D01*
X166642858Y-114876190D01*
X166261905Y-114876190D01*
X167214286Y-114447619D02*
X167261905Y-114400000D01*
X167357143Y-114352381D01*
X167595239Y-114352381D01*
X167690477Y-114400000D01*
X167738096Y-114447619D01*
X167785715Y-114542857D01*
X167785715Y-114638095D01*
X167738096Y-114780952D01*
X167166667Y-115352381D01*
X167785715Y-115352381D01*
X51352381Y-52738095D02*
X50352381Y-52738095D01*
X50352381Y-52357142D01*
X50400000Y-52261904D01*
X50447619Y-52214285D01*
X50542857Y-52166666D01*
X50685714Y-52166666D01*
X50780952Y-52214285D01*
X50828571Y-52261904D01*
X50876190Y-52357142D01*
X50876190Y-52738095D01*
X50685714Y-51309523D02*
X51352381Y-51309523D01*
X50304762Y-51547619D02*
X51019048Y-51785714D01*
X51019048Y-51166666D01*
X51352381Y-68738095D02*
X50352381Y-68738095D01*
X50352381Y-68357142D01*
X50400000Y-68261904D01*
X50447619Y-68214285D01*
X50542857Y-68166666D01*
X50685714Y-68166666D01*
X50780952Y-68214285D01*
X50828571Y-68261904D01*
X50876190Y-68357142D01*
X50876190Y-68738095D01*
X50352381Y-67261904D02*
X50352381Y-67738095D01*
X50828571Y-67785714D01*
X50780952Y-67738095D01*
X50733333Y-67642857D01*
X50733333Y-67404761D01*
X50780952Y-67309523D01*
X50828571Y-67261904D01*
X50923810Y-67214285D01*
X51161905Y-67214285D01*
X51257143Y-67261904D01*
X51304762Y-67309523D01*
X51352381Y-67404761D01*
X51352381Y-67642857D01*
X51304762Y-67738095D01*
X51257143Y-67785714D01*
X158261905Y-81352381D02*
X158261905Y-80352381D01*
X158642858Y-80352381D01*
X158738096Y-80400000D01*
X158785715Y-80447619D01*
X158833334Y-80542857D01*
X158833334Y-80685714D01*
X158785715Y-80780952D01*
X158738096Y-80828571D01*
X158642858Y-80876190D01*
X158261905Y-80876190D01*
X159690477Y-80352381D02*
X159500000Y-80352381D01*
X159404762Y-80400000D01*
X159357143Y-80447619D01*
X159261905Y-80590476D01*
X159214286Y-80780952D01*
X159214286Y-81161905D01*
X159261905Y-81257143D01*
X159309524Y-81304762D01*
X159404762Y-81352381D01*
X159595239Y-81352381D01*
X159690477Y-81304762D01*
X159738096Y-81257143D01*
X159785715Y-81161905D01*
X159785715Y-80923810D01*
X159738096Y-80828571D01*
X159690477Y-80780952D01*
X159595239Y-80733333D01*
X159404762Y-80733333D01*
X159309524Y-80780952D01*
X159261905Y-80828571D01*
X159214286Y-80923810D01*
X58904762Y-54297619D02*
X58809524Y-54250000D01*
X58714286Y-54154762D01*
X58571429Y-54011905D01*
X58476190Y-53964286D01*
X58380952Y-53964286D01*
X58428571Y-54202381D02*
X58333333Y-54154762D01*
X58238095Y-54059524D01*
X58190476Y-53869048D01*
X58190476Y-53535714D01*
X58238095Y-53345238D01*
X58333333Y-53250000D01*
X58428571Y-53202381D01*
X58619048Y-53202381D01*
X58714286Y-53250000D01*
X58809524Y-53345238D01*
X58857143Y-53535714D01*
X58857143Y-53869048D01*
X58809524Y-54059524D01*
X58714286Y-54154762D01*
X58619048Y-54202381D01*
X58428571Y-54202381D01*
X59809524Y-54202381D02*
X59238095Y-54202381D01*
X59523809Y-54202381D02*
X59523809Y-53202381D01*
X59428571Y-53345238D01*
X59333333Y-53440476D01*
X59238095Y-53488095D01*
X62904762Y-54297619D02*
X62809524Y-54250000D01*
X62714286Y-54154762D01*
X62571429Y-54011905D01*
X62476190Y-53964286D01*
X62380952Y-53964286D01*
X62428571Y-54202381D02*
X62333333Y-54154762D01*
X62238095Y-54059524D01*
X62190476Y-53869048D01*
X62190476Y-53535714D01*
X62238095Y-53345238D01*
X62333333Y-53250000D01*
X62428571Y-53202381D01*
X62619048Y-53202381D01*
X62714286Y-53250000D01*
X62809524Y-53345238D01*
X62857143Y-53535714D01*
X62857143Y-53869048D01*
X62809524Y-54059524D01*
X62714286Y-54154762D01*
X62619048Y-54202381D01*
X62428571Y-54202381D01*
X63238095Y-53297619D02*
X63285714Y-53250000D01*
X63380952Y-53202381D01*
X63619048Y-53202381D01*
X63714286Y-53250000D01*
X63761905Y-53297619D01*
X63809524Y-53392857D01*
X63809524Y-53488095D01*
X63761905Y-53630952D01*
X63190476Y-54202381D01*
X63809524Y-54202381D01*
X151833334Y-102552381D02*
X151500000Y-102076190D01*
X151261905Y-102552381D02*
X151261905Y-101552381D01*
X151642858Y-101552381D01*
X151738096Y-101600000D01*
X151785715Y-101647619D01*
X151833334Y-101742857D01*
X151833334Y-101885714D01*
X151785715Y-101980952D01*
X151738096Y-102028571D01*
X151642858Y-102076190D01*
X151261905Y-102076190D01*
X152785715Y-102552381D02*
X152214286Y-102552381D01*
X152500000Y-102552381D02*
X152500000Y-101552381D01*
X152404762Y-101695238D01*
X152309524Y-101790476D01*
X152214286Y-101838095D01*
X144833334Y-104552381D02*
X144500000Y-104076190D01*
X144261905Y-104552381D02*
X144261905Y-103552381D01*
X144642858Y-103552381D01*
X144738096Y-103600000D01*
X144785715Y-103647619D01*
X144833334Y-103742857D01*
X144833334Y-103885714D01*
X144785715Y-103980952D01*
X144738096Y-104028571D01*
X144642858Y-104076190D01*
X144261905Y-104076190D01*
X145214286Y-103647619D02*
X145261905Y-103600000D01*
X145357143Y-103552381D01*
X145595239Y-103552381D01*
X145690477Y-103600000D01*
X145738096Y-103647619D01*
X145785715Y-103742857D01*
X145785715Y-103838095D01*
X145738096Y-103980952D01*
X145166667Y-104552381D01*
X145785715Y-104552381D01*
X58833334Y-64852381D02*
X58500000Y-64376190D01*
X58261905Y-64852381D02*
X58261905Y-63852381D01*
X58642858Y-63852381D01*
X58738096Y-63900000D01*
X58785715Y-63947619D01*
X58833334Y-64042857D01*
X58833334Y-64185714D01*
X58785715Y-64280952D01*
X58738096Y-64328571D01*
X58642858Y-64376190D01*
X58261905Y-64376190D01*
X59166667Y-63852381D02*
X59785715Y-63852381D01*
X59452381Y-64233333D01*
X59595239Y-64233333D01*
X59690477Y-64280952D01*
X59738096Y-64328571D01*
X59785715Y-64423810D01*
X59785715Y-64661905D01*
X59738096Y-64757143D01*
X59690477Y-64804762D01*
X59595239Y-64852381D01*
X59309524Y-64852381D01*
X59214286Y-64804762D01*
X59166667Y-64757143D01*
X61833334Y-61052381D02*
X61500000Y-60576190D01*
X61261905Y-61052381D02*
X61261905Y-60052381D01*
X61642858Y-60052381D01*
X61738096Y-60100000D01*
X61785715Y-60147619D01*
X61833334Y-60242857D01*
X61833334Y-60385714D01*
X61785715Y-60480952D01*
X61738096Y-60528571D01*
X61642858Y-60576190D01*
X61261905Y-60576190D01*
X62690477Y-60385714D02*
X62690477Y-61052381D01*
X62452381Y-60004762D02*
X62214286Y-60719048D01*
X62833334Y-60719048D01*
X157833334Y-117552381D02*
X157500000Y-117076190D01*
X157261905Y-117552381D02*
X157261905Y-116552381D01*
X157642858Y-116552381D01*
X157738096Y-116600000D01*
X157785715Y-116647619D01*
X157833334Y-116742857D01*
X157833334Y-116885714D01*
X157785715Y-116980952D01*
X157738096Y-117028571D01*
X157642858Y-117076190D01*
X157261905Y-117076190D01*
X158738096Y-116552381D02*
X158261905Y-116552381D01*
X158214286Y-117028571D01*
X158261905Y-116980952D01*
X158357143Y-116933333D01*
X158595239Y-116933333D01*
X158690477Y-116980952D01*
X158738096Y-117028571D01*
X158785715Y-117123810D01*
X158785715Y-117361905D01*
X158738096Y-117457143D01*
X158690477Y-117504762D01*
X158595239Y-117552381D01*
X158357143Y-117552381D01*
X158261905Y-117504762D01*
X158214286Y-117457143D01*
X160833334Y-103552381D02*
X160500000Y-103076190D01*
X160261905Y-103552381D02*
X160261905Y-102552381D01*
X160642858Y-102552381D01*
X160738096Y-102600000D01*
X160785715Y-102647619D01*
X160833334Y-102742857D01*
X160833334Y-102885714D01*
X160785715Y-102980952D01*
X160738096Y-103028571D01*
X160642858Y-103076190D01*
X160261905Y-103076190D01*
X161690477Y-102552381D02*
X161500000Y-102552381D01*
X161404762Y-102600000D01*
X161357143Y-102647619D01*
X161261905Y-102790476D01*
X161214286Y-102980952D01*
X161214286Y-103361905D01*
X161261905Y-103457143D01*
X161309524Y-103504762D01*
X161404762Y-103552381D01*
X161595239Y-103552381D01*
X161690477Y-103504762D01*
X161738096Y-103457143D01*
X161785715Y-103361905D01*
X161785715Y-103123810D01*
X161738096Y-103028571D01*
X161690477Y-102980952D01*
X161595239Y-102933333D01*
X161404762Y-102933333D01*
X161309524Y-102980952D01*
X161261905Y-103028571D01*
X161214286Y-103123810D01*
X97261905Y-86952381D02*
X97261905Y-85952381D01*
X97500000Y-85952381D01*
X97642858Y-86000000D01*
X97738096Y-86095238D01*
X97785715Y-86190476D01*
X97833334Y-86380952D01*
X97833334Y-86523810D01*
X97785715Y-86714286D01*
X97738096Y-86809524D01*
X97642858Y-86904762D01*
X97500000Y-86952381D01*
X97261905Y-86952381D01*
X98785715Y-86952381D02*
X98214286Y-86952381D01*
X98500000Y-86952381D02*
X98500000Y-85952381D01*
X98404762Y-86095238D01*
X98309524Y-86190476D01*
X98214286Y-86238095D01*
X79261905Y-104532381D02*
X79261905Y-103532381D01*
X79642858Y-103532381D01*
X79738096Y-103580000D01*
X79785715Y-103627619D01*
X79833334Y-103722857D01*
X79833334Y-103865714D01*
X79785715Y-103960952D01*
X79738096Y-104008571D01*
X79642858Y-104056190D01*
X79261905Y-104056190D01*
X80166667Y-103532381D02*
X80785715Y-103532381D01*
X80452381Y-103913333D01*
X80595239Y-103913333D01*
X80690477Y-103960952D01*
X80738096Y-104008571D01*
X80785715Y-104103810D01*
X80785715Y-104341905D01*
X80738096Y-104437143D01*
X80690477Y-104484762D01*
X80595239Y-104532381D01*
X80309524Y-104532381D01*
X80214286Y-104484762D01*
X80166667Y-104437143D01*
X84904762Y-87297619D02*
X84809524Y-87250000D01*
X84714286Y-87154762D01*
X84571429Y-87011905D01*
X84476190Y-86964286D01*
X84380952Y-86964286D01*
X84428571Y-87202381D02*
X84333333Y-87154762D01*
X84238095Y-87059524D01*
X84190476Y-86869048D01*
X84190476Y-86535714D01*
X84238095Y-86345238D01*
X84333333Y-86250000D01*
X84428571Y-86202381D01*
X84619048Y-86202381D01*
X84714286Y-86250000D01*
X84809524Y-86345238D01*
X84857143Y-86535714D01*
X84857143Y-86869048D01*
X84809524Y-87059524D01*
X84714286Y-87154762D01*
X84619048Y-87202381D01*
X84428571Y-87202381D01*
X85190476Y-86202381D02*
X85809524Y-86202381D01*
X85476190Y-86583333D01*
X85619048Y-86583333D01*
X85714286Y-86630952D01*
X85761905Y-86678571D01*
X85809524Y-86773810D01*
X85809524Y-87011905D01*
X85761905Y-87107143D01*
X85714286Y-87154762D01*
X85619048Y-87202381D01*
X85333333Y-87202381D01*
X85238095Y-87154762D01*
X85190476Y-87107143D01*
D12*
X52725905Y-59443619D02*
X52725905Y-60266095D01*
X52774286Y-60362857D01*
X52822667Y-60411238D01*
X52919429Y-60459619D01*
X53112952Y-60459619D01*
X53209714Y-60411238D01*
X53258095Y-60362857D01*
X53306476Y-60266095D01*
X53306476Y-59443619D01*
X54322476Y-60459619D02*
X53741905Y-60459619D01*
X54032191Y-60459619D02*
X54032191Y-59443619D01*
X53935429Y-59588762D01*
X53838667Y-59685524D01*
X53741905Y-59733905D01*
X46557334Y-61931333D02*
X47041143Y-61931333D01*
X46460572Y-62221619D02*
X46799239Y-61205619D01*
X47137905Y-62221619D01*
X47476572Y-62221619D02*
X47476572Y-61205619D01*
X47863619Y-61205619D01*
X47960381Y-61254000D01*
X48008762Y-61302381D01*
X48057143Y-61399143D01*
X48057143Y-61544286D01*
X48008762Y-61641048D01*
X47960381Y-61689429D01*
X47863619Y-61737810D01*
X47476572Y-61737810D01*
X48444191Y-61302381D02*
X48492572Y-61254000D01*
X48589334Y-61205619D01*
X48831238Y-61205619D01*
X48928000Y-61254000D01*
X48976381Y-61302381D01*
X49024762Y-61399143D01*
X49024762Y-61495905D01*
X48976381Y-61641048D01*
X48395810Y-62221619D01*
X49024762Y-62221619D01*
X49992381Y-62221619D02*
X49411810Y-62221619D01*
X49702096Y-62221619D02*
X49702096Y-61205619D01*
X49605334Y-61350762D01*
X49508572Y-61447524D01*
X49411810Y-61495905D01*
X50960000Y-62221619D02*
X50379429Y-62221619D01*
X50669715Y-62221619D02*
X50669715Y-61205619D01*
X50572953Y-61350762D01*
X50476191Y-61447524D01*
X50379429Y-61495905D01*
X51830857Y-61544286D02*
X51830857Y-62221619D01*
X51588953Y-61157238D02*
X51347048Y-61882952D01*
X51976000Y-61882952D01*
X52363048Y-62221619D02*
X52363048Y-61205619D01*
X52363048Y-61689429D02*
X52943619Y-61689429D01*
X52943619Y-62221619D02*
X52943619Y-61205619D01*
X53427429Y-61834571D02*
X54201524Y-61834571D01*
X54588572Y-61205619D02*
X55217524Y-61205619D01*
X54878858Y-61592667D01*
X55024000Y-61592667D01*
X55120762Y-61641048D01*
X55169143Y-61689429D01*
X55217524Y-61786190D01*
X55217524Y-62028095D01*
X55169143Y-62124857D01*
X55120762Y-62173238D01*
X55024000Y-62221619D01*
X54733715Y-62221619D01*
X54636953Y-62173238D01*
X54588572Y-62124857D01*
X55652953Y-62124857D02*
X55701334Y-62173238D01*
X55652953Y-62221619D01*
X55604572Y-62173238D01*
X55652953Y-62124857D01*
X55652953Y-62221619D01*
X56040001Y-61205619D02*
X56668953Y-61205619D01*
X56330287Y-61592667D01*
X56475429Y-61592667D01*
X56572191Y-61641048D01*
X56620572Y-61689429D01*
X56668953Y-61786190D01*
X56668953Y-62028095D01*
X56620572Y-62124857D01*
X56572191Y-62173238D01*
X56475429Y-62221619D01*
X56185144Y-62221619D01*
X56088382Y-62173238D01*
X56040001Y-62124857D01*
X56959239Y-61205619D02*
X57539810Y-61205619D01*
X57249525Y-62221619D02*
X57249525Y-61205619D01*
X58459048Y-62221619D02*
X58120382Y-61737810D01*
X57878477Y-62221619D02*
X57878477Y-61205619D01*
X58265524Y-61205619D01*
X58362286Y-61254000D01*
X58410667Y-61302381D01*
X58459048Y-61399143D01*
X58459048Y-61544286D01*
X58410667Y-61641048D01*
X58362286Y-61689429D01*
X58265524Y-61737810D01*
X57878477Y-61737810D01*
X59426667Y-61254000D02*
X59329905Y-61205619D01*
X59184762Y-61205619D01*
X59039620Y-61254000D01*
X58942858Y-61350762D01*
X58894477Y-61447524D01*
X58846096Y-61641048D01*
X58846096Y-61786190D01*
X58894477Y-61979714D01*
X58942858Y-62076476D01*
X59039620Y-62173238D01*
X59184762Y-62221619D01*
X59281524Y-62221619D01*
X59426667Y-62173238D01*
X59475048Y-62124857D01*
X59475048Y-61786190D01*
X59281524Y-61786190D01*
X60442667Y-62221619D02*
X59862096Y-62221619D01*
X60152382Y-62221619D02*
X60152382Y-61205619D01*
X60055620Y-61350762D01*
X59958858Y-61447524D01*
X59862096Y-61495905D01*
D11*
X59238095Y-60952381D02*
X59238095Y-61761905D01*
X59285714Y-61857143D01*
X59333333Y-61904762D01*
X59428571Y-61952381D01*
X59619048Y-61952381D01*
X59714286Y-61904762D01*
X59761905Y-61857143D01*
X59809524Y-61761905D01*
X59809524Y-60952381D01*
X60238095Y-61047619D02*
X60285714Y-61000000D01*
X60380952Y-60952381D01*
X60619048Y-60952381D01*
X60714286Y-61000000D01*
X60761905Y-61047619D01*
X60809524Y-61142857D01*
X60809524Y-61238095D01*
X60761905Y-61380952D01*
X60190476Y-61952381D01*
X60809524Y-61952381D01*
D12*
X112225905Y-66681619D02*
X112225905Y-67504095D01*
X112274286Y-67600857D01*
X112322667Y-67649238D01*
X112419429Y-67697619D01*
X112612952Y-67697619D01*
X112709714Y-67649238D01*
X112758095Y-67600857D01*
X112806476Y-67504095D01*
X112806476Y-66681619D01*
X113193524Y-66681619D02*
X113822476Y-66681619D01*
X113483810Y-67068667D01*
X113628952Y-67068667D01*
X113725714Y-67117048D01*
X113774095Y-67165429D01*
X113822476Y-67262190D01*
X113822476Y-67504095D01*
X113774095Y-67600857D01*
X113725714Y-67649238D01*
X113628952Y-67697619D01*
X113338667Y-67697619D01*
X113241905Y-67649238D01*
X113193524Y-67600857D01*
X106057334Y-68931333D02*
X106541143Y-68931333D01*
X105960572Y-69221619D02*
X106299239Y-68205619D01*
X106637905Y-69221619D01*
X106976572Y-69221619D02*
X106976572Y-68205619D01*
X107363619Y-68205619D01*
X107460381Y-68254000D01*
X107508762Y-68302381D01*
X107557143Y-68399143D01*
X107557143Y-68544286D01*
X107508762Y-68641048D01*
X107460381Y-68689429D01*
X107363619Y-68737810D01*
X106976572Y-68737810D01*
X107944191Y-68302381D02*
X107992572Y-68254000D01*
X108089334Y-68205619D01*
X108331238Y-68205619D01*
X108428000Y-68254000D01*
X108476381Y-68302381D01*
X108524762Y-68399143D01*
X108524762Y-68495905D01*
X108476381Y-68641048D01*
X107895810Y-69221619D01*
X108524762Y-69221619D01*
X109492381Y-69221619D02*
X108911810Y-69221619D01*
X109202096Y-69221619D02*
X109202096Y-68205619D01*
X109105334Y-68350762D01*
X109008572Y-68447524D01*
X108911810Y-68495905D01*
X110460000Y-69221619D02*
X109879429Y-69221619D01*
X110169715Y-69221619D02*
X110169715Y-68205619D01*
X110072953Y-68350762D01*
X109976191Y-68447524D01*
X109879429Y-68495905D01*
X111330857Y-68544286D02*
X111330857Y-69221619D01*
X111088953Y-68157238D02*
X110847048Y-68882952D01*
X111476000Y-68882952D01*
X111863048Y-69221619D02*
X111863048Y-68205619D01*
X111863048Y-68689429D02*
X112443619Y-68689429D01*
X112443619Y-69221619D02*
X112443619Y-68205619D01*
X112927429Y-68834571D02*
X113701524Y-68834571D01*
X114088572Y-68205619D02*
X114717524Y-68205619D01*
X114378858Y-68592667D01*
X114524000Y-68592667D01*
X114620762Y-68641048D01*
X114669143Y-68689429D01*
X114717524Y-68786190D01*
X114717524Y-69028095D01*
X114669143Y-69124857D01*
X114620762Y-69173238D01*
X114524000Y-69221619D01*
X114233715Y-69221619D01*
X114136953Y-69173238D01*
X114088572Y-69124857D01*
X115152953Y-69124857D02*
X115201334Y-69173238D01*
X115152953Y-69221619D01*
X115104572Y-69173238D01*
X115152953Y-69124857D01*
X115152953Y-69221619D01*
X115540001Y-68205619D02*
X116168953Y-68205619D01*
X115830287Y-68592667D01*
X115975429Y-68592667D01*
X116072191Y-68641048D01*
X116120572Y-68689429D01*
X116168953Y-68786190D01*
X116168953Y-69028095D01*
X116120572Y-69124857D01*
X116072191Y-69173238D01*
X115975429Y-69221619D01*
X115685144Y-69221619D01*
X115588382Y-69173238D01*
X115540001Y-69124857D01*
X116459239Y-68205619D02*
X117039810Y-68205619D01*
X116749525Y-69221619D02*
X116749525Y-68205619D01*
X117959048Y-69221619D02*
X117620382Y-68737810D01*
X117378477Y-69221619D02*
X117378477Y-68205619D01*
X117765524Y-68205619D01*
X117862286Y-68254000D01*
X117910667Y-68302381D01*
X117959048Y-68399143D01*
X117959048Y-68544286D01*
X117910667Y-68641048D01*
X117862286Y-68689429D01*
X117765524Y-68737810D01*
X117378477Y-68737810D01*
X118926667Y-68254000D02*
X118829905Y-68205619D01*
X118684762Y-68205619D01*
X118539620Y-68254000D01*
X118442858Y-68350762D01*
X118394477Y-68447524D01*
X118346096Y-68641048D01*
X118346096Y-68786190D01*
X118394477Y-68979714D01*
X118442858Y-69076476D01*
X118539620Y-69173238D01*
X118684762Y-69221619D01*
X118781524Y-69221619D01*
X118926667Y-69173238D01*
X118975048Y-69124857D01*
X118975048Y-68786190D01*
X118781524Y-68786190D01*
X119942667Y-69221619D02*
X119362096Y-69221619D01*
X119652382Y-69221619D02*
X119652382Y-68205619D01*
X119555620Y-68350762D01*
X119458858Y-68447524D01*
X119362096Y-68495905D01*
M02*
